<?xml version="1.0" encoding="utf-8"?>
<!-- Generator: Adobe Illustrator 16.0.0, SVG Export Plug-In . SVG Version: 6.00 Build 0)  -->
<!DOCTYPE svg PUBLIC "-//W3C//DTD SVG 1.1//EN" "http://www.w3.org/Graphics/SVG/1.1/DTD/svg11.dtd">
<svg version="1.1" id="Layer_1" xmlns="http://www.w3.org/2000/svg" xmlns:xlink="http://www.w3.org/1999/xlink" x="0px" y="0px"
	 width="28px" height="28px" viewBox="241.692 0 28 28" enable-background="new 241.692 0 28 28" xml:space="preserve">
<rect x="241.692" fill="#FFFFFF" width="28" height="28"/>
<path d="M258.434,17.504c-0.25,0-0.482-0.097-0.658-0.271l-2.062-2.062l-2.062,2.062c-0.176,0.175-0.409,0.271-0.657,0.271
	c-0.249,0-0.483-0.097-0.658-0.271c-0.176-0.176-0.271-0.41-0.271-0.658s0.096-0.481,0.271-0.658l2.062-2.062l-2.062-2.062
	c-0.361-0.36-0.362-0.95-0.002-1.313c0.178-0.177,0.411-0.273,0.66-0.273c0.248,0,0.48,0.096,0.657,0.271l2.062,2.063l2.062-2.063
	c0.176-0.175,0.409-0.271,0.657-0.271s0.482,0.096,0.657,0.271c0.363,0.365,0.363,0.955,0,1.316l-2.062,2.062l2.062,2.062
	c0.362,0.363,0.362,0.953,0,1.316C258.915,17.407,258.682,17.504,258.434,17.504z"/>
<path d="M256.224,13.854l3.121-3.121c0.142-0.141,0.142-0.369,0-0.511c-0.141-0.141-0.369-0.141-0.511,0l-3.121,3.121l-3.12-3.121
	c-0.142-0.141-0.37-0.141-0.511,0c-0.142,0.142-0.142,0.37,0,0.511l3.121,3.121l-3.121,3.121c-0.142,0.142-0.142,0.37,0,0.511
	c0.07,0.07,0.163,0.105,0.256,0.105c0.092,0,0.184-0.035,0.255-0.105l3.12-3.122l3.121,3.122c0.07,0.07,0.163,0.105,0.256,0.105
	c0.092,0,0.185-0.035,0.255-0.105c0.142-0.141,0.142-0.369,0-0.511L256.224,13.854z"/>
</svg>
