<?xml version="1.0" encoding="utf-8"?>
<!-- Generator: Adobe Illustrator 16.0.0, SVG Export Plug-In . SVG Version: 6.00 Build 0)  -->
<!DOCTYPE svg PUBLIC "-//W3C//DTD SVG 1.1//EN" "http://www.w3.org/Graphics/SVG/1.1/DTD/svg11.dtd">
<svg version="1.1" id="Layer_1" xmlns="http://www.w3.org/2000/svg" xmlns:xlink="http://www.w3.org/1999/xlink" x="0px" y="0px"
	 width="639.079px" height="326.594px" viewBox="0 0 639.079 326.594" style="enable-background:new 0 0 639.079 326.594;"
	 xml:space="preserve">
<style type="text/css">
<![CDATA[
	.st0{fill:#E1E0E1;}
	.st1{fill:#E2E1E2;}
	.st2{fill:#E3E3E3;}
	.st3{fill:#E4E4E4;}
	.st4{fill:#E5E5E5;}
	.st5{fill:#E6E6E6;}
	.st6{fill:#E8E7E7;}
	.st7{fill:#E9E8E8;}
	.st8{fill:#808184;}
	.st9{fill:#EAE9EA;}
	.st10{fill:#EB2027;}
	.st11{fill:#EBEAEA;}
	.st12{fill:#EBF0DC;}
	.st13{fill:#ECEBEB;}
	.st14{fill:#EDECED;}
	.st15{fill:#EEEDED;}
	.st16{fill:#EFEEEE;}
	.st17{fill:#F0EFEF;}
	.st18{fill:#F1F1F1;}
	.st19{fill:#F2F1F1;}
	.st20{fill:#F3F2F2;}
	.st21{fill:#F4F4F4;}
	.st22{fill:#F5F4F4;}
	.st23{fill:#F5F5F5;}
	.st24{fill:#F6F7F7;}
	.st25{fill:#F7F7F7;}
	.st26{fill:#F9F9F9;}
	.st27{fill:#FAFBFB;}
	.st28{fill:#FCFCFB;}
	.st29{fill:#FCFDFF;}
	.st30{fill:#FFFFFF;}
	.st31{fill:none;}
	.st32{fill:#DADBDB;}
	.st33{fill:#DCDCDD;}
	.st34{fill:#DDDDDE;}
	.st35{fill:#DEDEDF;}
	.st36{fill:#DFDFE0;}
]]>
</style>
<g>
	<path class="st30" d="M47.353,160.308c0-1.009-0.56-1.539-1.939-1.539h-4.009v3.05h4.171
		C46.88,161.819,47.353,161.202,47.353,160.308z"/>
	<path class="st30" d="M29.306,158.931h-4.119v4.13h4.119c1.461,0,2.249-0.691,2.249-2.087
		C31.554,159.521,30.704,158.931,29.306,158.931z"/>
	<path class="st30" d="M45.595,164.669h-4.19v4.144h4.19c1.53,0,2.254-0.822,2.254-2.082
		C47.849,165.352,47.125,164.669,45.595,164.669z"/>
	<path class="st30" d="M337.644,158.934h-3.724v4.127h3.768c1.497,0,2.312-0.691,2.312-2.087
		C340,159.576,339.081,158.934,337.644,158.934z"/>
	<path class="st30" d="M367.743,159.831c-0.158,0.586-0.488,1.552-0.807,2.495l-1.045,2.91h3.693l-1.033-2.91
		C368.229,161.383,367.904,160.418,367.743,159.831z"/>
	<path class="st30" d="M131.104,158.931h-4.119v4.13h4.119c1.464,0,2.254-0.691,2.254-2.087
		C133.359,159.521,132.498,158.931,131.104,158.931z"/>
	<path class="st30" d="M226.345,158.931h-1.711v9.817h1.596c3.395,0,4.95-1.977,4.95-4.906
		C231.18,160.561,229.761,158.931,226.345,158.931z"/>
	<path class="st30" d="M146.179,159.831c-0.159,0.586-0.469,1.552-0.787,2.495l-1.012,2.91h3.601l-1.015-2.91
		C146.653,161.383,146.338,160.418,146.179,159.831z"/>
	<path class="st30" d="M163.688,158.934h-3.625v4.127h3.669c1.461,0,2.249-0.691,2.249-2.087
		C165.981,159.576,165.084,158.934,163.688,158.934z"/>
	<path class="st30" d="M60.381,159.831c-0.159,0.586-0.478,1.552-0.784,2.495l-1.017,2.91h3.598l-1.006-2.91
		C60.855,161.383,60.537,160.418,60.381,159.831z"/>
	<path class="st30" d="M0,0v326.594h639.079V0H0z M17.875,164.781c0,4.656-2.386,7.338-6.395,7.338c-3.801,0-6.368-2.616-6.368-7.29
		v-9.017h3.154v8.968c0,2.565,1.212,4.198,3.214,4.198c2.007,0,3.241-1.586,3.241-4.149v-9.017h3.154V164.781z M34.795,171.864
		H31.17l-2.813-5.778h-3.17v5.778h-3.148v-16.047h7.333c2.973,0,5.424,1.673,5.424,5.084c0,2.414-1.015,3.927-3.021,4.733
		L34.795,171.864z M45.485,171.864h-7.16v-16.051h7.226c3.061,0,4.993,1.484,4.993,4.243c0,1.376-0.63,2.476-1.664,3.121
		c1.261,0.57,2.208,1.739,2.208,3.507C51.087,170.055,48.86,171.864,45.485,171.864z M64.497,171.864l-1.239-3.573h-5.759
		l-1.242,3.573h-3.378l6.039-16.051h3.06l5.987,16.051H64.497z M83.872,171.864h-2.811l-5.783-8.756
		c-0.379-0.598-0.902-1.398-1.103-1.815c0,0.598,0.044,2.619,0.044,3.514v7.059h-3.104v-16.051h3.017l5.583,8.482
		c0.379,0.601,0.894,1.407,1.103,1.81c0-0.59-0.046-2.612-0.046-3.506v-6.785h3.102v16.05H83.872z M97.284,176.104h-2.817v-22.583
		h2.817V176.104z M120.278,165.65c0,4.129-2.679,6.469-6.321,6.469c-4.116,0-6.888-3.209-6.888-8.279
		c0-4.881,2.882-8.276,7.001-8.276c3.217,0,4.931,1.536,5.961,4.015l-2.989,1.253c-0.59-1.188-1.311-2.081-3.017-2.081
		c-2.364,0-3.71,2.108-3.71,5.089c0,2.956,1.365,5.139,3.727,5.139c2.169,0,2.906-1.03,3.087-2.438h-2.495v-3h5.643L120.278,165.65
		L120.278,165.65z M136.595,171.864h-3.62l-2.814-5.778h-3.176v5.778h-3.147v-16.047h7.333c2.976,0,5.424,1.673,5.424,5.084
		c0,2.414-1.015,3.927-3.019,4.733L136.595,171.864z M150.298,171.864l-1.237-3.573h-5.764l-1.234,3.573h-3.378l6.038-16.051h3.058
		l5.981,16.051H150.298z M163.53,166.176h-3.466v5.688h-3.154v-16.047h6.889c2.973,0,5.424,1.673,5.424,5.084
		C169.223,164.619,166.796,166.176,163.53,166.176z M185.199,171.864h-3.148v-6.743h-6.461v6.743h-3.148v-16.051h3.148v6.146h6.461
		v-6.146h3.148V171.864z M192.85,171.864h-3.153v-16.051h3.153V171.864z M203.49,168.932c1.421,0,2.254-0.625,3.088-2.041
		l2.654,1.601c-1.081,2.276-2.973,3.628-5.831,3.628c-4.119,0-6.889-3.211-6.889-8.277c0-4.886,2.885-8.281,7.001-8.281
		c2.97,0,4.774,1.467,5.762,3.554l-2.923,1.371c-0.56-1.091-1.465-1.741-2.88-1.741c-2.367,0-3.713,2.114-3.713,5.098
		C199.761,166.73,201.132,168.932,203.49,168.932z M226.229,171.864h-4.832v-16.047h5.06c4.621,0,8.045,2.155,8.045,8.026
		C234.503,169.486,230.387,171.864,226.229,171.864z M249.549,171.864h-11.58v-16.051h11.238v3.146h-8.005v2.773h4.651v3.12h-4.651
		v3.873h8.347V171.864z M258.401,172.119c-2.698,0-5.067-1.122-6.284-2.918l2.336-2.057c1.133,1.305,2.588,1.834,4.138,1.834
		c1.917,0,2.816-0.529,2.816-1.748c0-1.033-0.554-1.488-3.598-2.17c-2.989-0.691-5.067-1.633-5.067-4.797
		c0-2.915,2.589-4.7,5.78-4.7c2.518,0,4.36,0.938,5.894,2.518l-2.333,2.246c-1.043-1.047-2.198-1.651-3.682-1.651
		c-1.732,0-2.303,0.74-2.303,1.453c0,1.004,0.691,1.327,3.253,1.92c2.566,0.601,5.412,1.473,5.412,4.958
		C264.764,170.051,262.822,172.119,258.401,172.119z M271.884,171.864h-3.237v-16.051h3.237V171.864z M289.197,165.65
		c0,4.129-2.752,6.469-6.493,6.469c-4.234,0-7.074-3.209-7.074-8.279c0-4.881,2.952-8.276,7.184-8.276
		c3.308,0,5.067,1.536,6.132,4.015l-3.076,1.253c-0.602-1.188-1.345-2.081-3.093-2.081c-2.425,0-3.818,2.108-3.818,5.089
		c0,2.956,1.404,5.139,3.834,5.139c2.221,0,2.983-1.03,3.167-2.438h-2.563v-3h5.802v2.109H289.197z M305.959,171.864h-2.89
		l-5.946-8.756c-0.39-0.598-0.919-1.398-1.135-1.815c0,0.598,0.049,2.619,0.049,3.514v7.059h-3.187v-16.051h3.094l5.731,8.482
		c0.4,0.601,0.927,1.407,1.135,1.81c0-0.59-0.038-2.612-0.038-3.506v-6.785h3.187V171.864L305.959,171.864z M319.755,176.104h-2.888
		v-22.583h2.888V176.104z M337.481,166.176h-3.562v5.688h-3.237v-16.047h7.077c3.05,0,5.566,1.673,5.566,5.084
		C343.325,164.619,340.833,166.176,337.481,166.176z M357.991,171.864h-11.354v-16.051h3.234v12.882h8.116v3.169H357.991z
		 M371.971,171.864l-1.271-3.573h-5.924l-1.264,3.573h-3.473l6.198-16.051h3.14l6.154,16.051H371.971z M638.731,93.527l-1.699-0.001
		l-5.289-0.003l-5.457-0.003l-5.66-0.004l-5.979-0.002l-6.391-0.004L602,93.505l-0.041,0.063l-0.146,0.255l-1.93,3.337l-1.936,3.344
		l-1.936,3.349l-1.932,3.344l-1.936,3.344l-1.93,3.337l-1.941,3.365l-1.932,3.339l-1.93,3.339l-1.932,3.342l-1.066,1.844
		l2.191,3.801l8.012,13.887l-0.062,0.027l6.895,11.945l3.238,5.617h0.066h1.088l3.861,0.002l3.861,0.003h3.859l3.893,0.002
		l3.85,0.002l3.865,0.002l3.865,0.004h3.859l3.861,0.004h1.107v3.772h-1.143l-3.861-0.003l-3.859-0.001l-3.859-0.001l-3.863-0.002
		l-3.85-0.002l-3.924-0.001l-3.861-0.001l-3.859-0.001l-3.861-0.002h-1.105l-0.057-0.101l-3.375,5.826l-13.719,23.701l-3.482,6.021
		l0.57,0.986l1.93,3.346l1.926,3.34l1.934,3.341l1.953,3.389l1.928,3.339l1.93,3.346l1.932,3.346l1.934,3.352l1.932,3.346
		l1.926,3.339l0.67,1.155h0.068l4.607,0.004l6.564,0.002l6.137,0.002l5.807,0.007l5.586,0.002l5.324,0.002l3.029,0.002v2.422v1.379
		h-1.316l-5.426-0.002l-5.611-0.004l-5.896-0.005l-6.23-0.002l-6.736-0.004l-5.916-0.004l-0.047,0.072l-2.953,5.11l-3.396,5.881
		l-3.143,5.438l-2.967,5.135l-2.828,4.9l-2.732,4.729l-2.516,4.353l0.096,0.168l2.014,3.49l2.014,3.493l2.02,3.5l2.016,3.492
		l1.988,3.451l0.1,0.168l-0.053,0.026l1.885,3.271l1.988,3.445l1.988,3.451l1.988,3.448l1.984,3.443l0.236,0.412h0.082l10.58,0.002
		l10.15,0.006l9.016,0.002c-2.629,1.322-5.291,2.584-7.994,3.771l-10.213-0.007l-11.482-0.012l-2.586,4.478l-0.109,0.19h12.537
		h0.008h-0.008h-12.537h-0.562h-3.803l2.023-3.504l1.691-2.93l-0.775-1.345l-1.982-3.444l-1.988-3.447l-2.02-3.494l-2.018-3.495
		l-1.357-2.355l0.062-0.033l-0.648-1.123l-2.01-3.488l-2.02-3.496l-2.021-3.508l-2.047-3.555l-1.438-2.49h-7.721l-27.043-0.012
		l-6.357-0.006l-0.043,0.062l-1.527,2.646l-2.059,3.557l-2.051,3.554l-2.023,3.5l-2.016,3.483l-2.021,3.496l-2.018,3.494
		l-2.021,3.498l-2.016,3.487l-1.988,3.438l-0.797,1.385l1.633,2.836l1.898,3.291h-4.498h-0.061h-0.008h-13.105
		c-0.002,0-0.006,0-0.008,0c0.002,0,0.006,0,0.008,0h13.105h0.008h0.061l-2.436-4.229l-11.217-0.006l-10.473-0.007
		c-2.752-1.186-5.453-2.454-8.129-3.784l9.145,0.008l10.342,0.004l10.334,0.006l0.02-0.02l0.057,0.092l0.369-0.635l1.988-3.439
		l1.99-3.449l1.99-3.443l1.996-3.448l1.998-3.464l2.018-3.479l2.02-3.5l2.023-3.491l2.02-3.498l2.016-3.484l0.127-0.225
		l-2.467-4.279l-2.682-4.656l-2.775-4.811l-2.92-5.066l-3.074-5.33l-3.303-5.729l-3.322-5.768l-6.811-0.004l-6.775-0.003
		l-6.268-0.004l-5.918-0.003l-5.635-0.004l-5.439-0.002l-4.271-0.004l-0.061-0.098l-0.416,0.719l-2.008,3.476l-2.01,3.479
		l-2.014,3.479l-2.016,3.487l-2.004,3.472l-1.986,3.436l-1.99,3.443l-1.982,3.438l-1.986,3.436l-1.98,3.432l-0.18,0.311l5.469,9.479
		l5.023,8.714l4.48,7.77c-2.465-1.604-4.879-3.268-7.246-5l-5.062-8.773l-5.873-10.191h-0.076h-5.311l-5.369-0.006
		c-1.203-1.244-2.414-2.49-3.576-3.774l5.305,0.002l5.334,0.004l3.551,0.004l0.707-1.226l1.98-3.434l2.008-3.465l2.01-3.484
		l2.016-3.487l2.012-3.478l2.01-3.477l2.016-3.484l2.037-3.529l2.043-3.535l1.75-3.029l-1.547-2.676l-8.545-14.811l0.053-0.021
		l-9.996-17.367l-0.23-0.397l-4.023-0.002l-4.076-0.002l-4.076-0.002l-4.072-0.002h-4.066l-4.023-0.002l-4.014-0.003l-4.016-0.002
		l-4.016-0.002l-4.002-0.002h-0.738l-0.035,0.065l-2.158,3.738l-2.668,4.621l-2.572,4.449c-0.523-1.553-1.057-3.102-1.537-4.672
		l2.689-4.66l2.703-4.684l0.371-0.646l-0.865-1.5l-6.072-10.536l-5.112-8.869c-0.308-2.897-0.546-5.814-0.699-8.754l4.459,7.731
		l5.079,8.797l6.041,10.472l0.387,0.67l0.076-0.006l3.643,0.002l3.961,0.002l4.008,0.002l4.018,0.002l4.016,0.002h4.004l4.016,0.002
		l4.014,0.002l4.064,0.002l4.066,0.002h1.242l0.018-0.021l0.055,0.094l1.76-3.043l2.68-4.629l2.756-4.767l2.871-4.957l3.018-5.208
		l3.23-5.586l3.521-6.084l0.721-1.246l-0.775-1.346l-3.611-6.271l-3.312-5.746l-3.082-5.346l-2.93-5.079l-2.812-4.872l-2.688-4.663
		l-1.332-2.308l-2.023-0.001l-4.006-0.003l-4.012-0.001l-4.012-0.003l-4.016-0.003l-4.002-0.003l-4-0.001l-3.965-0.002l-3.961-0.003
		l-3.961-0.002l-3.164-0.002l-0.061-0.096l-1.176,2.032l-5.688,9.847l-4.845,8.385l-3.343,5.786v14.774h-2.887l-5.943-8.756
		c-0.395-0.598-0.928-1.398-1.13-1.815c0,0.598,0.05,2.619,0.05,3.513v7.06h-3.191v-16.051h3.088l5.742,8.482
		c0.391,0.6,0.922,1.407,1.131,1.811c0-0.59-0.045-2.613-0.045-3.507v-6.785h2.334c0.105-1.83,0.23-3.655,0.396-5.468l4.883-8.464
		l5.756-9.975l1.525-2.649l-0.652-1.135l-2.76-4.787l-2.689-4.663c0.498-1.693,1.027-3.373,1.58-5.043l2.59,4.494l2.688,4.663
		l2.646,4.591h0.08h0.004l3.984,0.001l4.012,0.002l4.016,0.002l4.016,0.001l4.008,0.001l4.004,0.002l4.037,0.001l4.074,0.001
		l4.074,0.003l4.064,0.001h0.752l20.582-35.604l-0.482-0.831l-2.033-3.531l-2.039-3.536l-2.041-3.538l-2.023-3.506l-1.52-2.637
		l0.055-0.041l-0.488-0.851l-2.01-3.482l-2.01-3.489L452.1,62.87l-2.01-3.483l-1.65-2.865H447.5l-5.34-0.003l-5.328-0.001
		l-5.117-0.002c1.113-1.272,2.234-2.536,3.387-3.772l5.326,0.001l5.43,0.003l2.574,0.001l3.021-5.232l5.578-9.654l4.834-8.368
		c2.25-1.567,4.537-3.081,6.865-4.538l-4.312,7.457l-4.818,8.337l-5.576,9.653l-2.387,4.128l1.254,2.169l1.979,3.44l1.986,3.439
		l1.984,3.444l1.996,3.457l1.041,1.81l-0.049,0.033l0.969,1.678l2.01,3.488l2.01,3.484l2.012,3.484l2.006,3.483l1.066,1.851h0.078
		l2.416,0.001l5.328,0.003l5.535,0.004l5.766,0.003l6.043,0.004l6.461,0.003l7,0.004l2.49,0.001l1.244-2.153l3.498-6.054l3.23-5.584
		l3.02-5.226l2.879-4.984l2.775-4.797l2.646-4.573l1.287-2.229l-1.033-1.792l-2.012-3.487l-2.02-3.497l-2.016-3.496l-2.016-3.498
		l-0.998-1.729l0.053-0.038l-0.992-1.721l-1.988-3.448l-1.99-3.448l-1.99-3.449l-1.986-3.447l-1.283-2.224l-4.594-0.003
		l-11.252-0.004l-9.672-0.005l-8.629-0.004c2.5-1.322,5.039-2.576,7.611-3.773l9.74,0.007l11.305,0.007l5.5,0.002l0.021-0.024
		l0.053,0.098l1.215-2.101l2.73-4.72l2.641-4.572c1.656-0.373,3.312-0.733,4.984-1.057l-2.58,4.463l-2.643,4.571l-2.678,4.633
		l-0.344,0.592l1.736,3.014l2.002,3.471l2.018,3.497l2.016,3.496l2.02,3.497l0.404,0.705l-0.057,0.039l1.59,2.762l2.018,3.498
		l2.033,3.532l2.053,3.555l2.039,3.545l0.385,0.664h0.088l41.035,0.022l0.221-0.378l2.049-3.547l2.029-3.51l2.021-3.497l2.021-3.495
		l2.014-3.486l2.023-3.497l2.014-3.484l1.992-3.45l1.994-3.446l1.992-3.444l0.213-0.372l-2.471-4.281l-2.641-4.574l-2.637-4.567
		c1.689,0.357,3.367,0.755,5.041,1.163l2.684,4.663l2.766,4.796l0.461,0.799h0.086l2.18,0.001l11.5,0.005l9.889,0.006
		c2.617,1.196,5.197,2.457,7.74,3.784l-8.748-0.007l-9.826-0.008l-11.451-0.01l-1.227-0.001l-1.799,3.112l-1.99,3.445l-1.992,3.45
		l-1.988,3.447l-1.992,3.449l-1.988,3.439l-1.994,3.452L586.28,45.8l-2.02,3.494l-2.018,3.489l-0.771,1.333l1.631,2.827l2.713,4.703
		l2.807,4.864l2.934,5.097L594.665,77l3.361,5.832l3.688,6.399l0.295,0.51h0.594l7.023,0.004l6.48,0.003l6.061,0.004l5.775,0.003
		l5.545,0.002l5.254,0.003v3.767H638.731z M406.184,162.598v-6.785h3.191v16.051h-2.898l-5.936-8.756
		c-0.396-0.598-0.922-1.398-1.137-1.815c0,0.598,0.049,2.619,0.049,3.514v7.059h-3.193v-16.051h3.102l5.727,8.482
		c0.4,0.601,0.93,1.407,1.143,1.81C406.227,165.516,406.184,163.492,406.184,162.598z M414,171.864v-16.051h3.23v16.051H414z
		 M431.768,162.598v-6.785h3.189v16.051h-2.889l-5.941-8.756c-0.395-0.598-0.922-1.398-1.137-1.815c0,0.598,0.051,2.619,0.051,3.514
		v7.059h-3.193v-16.051h3.102l5.727,8.482c0.396,0.601,0.939,1.407,1.141,1.81C431.813,165.516,431.768,163.492,431.768,162.598z
		 M445.661,168.979c2.217,0,2.979-1.03,3.166-2.438h-2.564v-3h5.803v2.109c0,4.129-2.756,6.469-6.496,6.469
		c-4.23,0-7.066-3.209-7.066-8.279c0-4.881,2.951-8.276,7.182-8.276c3.309,0,5.064,1.536,6.127,4.015l-3.074,1.253
		c-0.604-1.188-1.344-2.081-3.094-2.081c-2.424,0-3.822,2.108-3.822,5.089C441.817,166.796,443.227,168.979,445.661,168.979z"/>
	<polyline class="st31" points="611.264,322.34 611.258,322.34 598.721,322.34 	"/>
	<polyline class="st31" points="501.959,322.34 501.967,322.34 515.073,322.34 	"/>
	<line class="st31" x1="515.081" y1="322.34" x2="515.141" y2="322.34"/>
	<path class="st30" d="M492.032,314.322l-9.143-0.008c2.674,1.329,5.377,2.6,8.127,3.784l10.473,0.007l11.217,0.006l2.436,4.229
		h4.498l-1.896-3.291c-5.23-1.321-10.359-2.895-15.367-4.725L492.032,314.322z"/>
	<line class="st31" x1="515.073" y1="322.34" x2="515.081" y2="322.34"/>
	<path class="st30" d="M624.543,18.523l8.746,0.007c-2.541-1.327-5.121-2.587-7.738-3.784l-9.889-0.006l-11.5-0.005
		c3.576,1.127,7.088,2.41,10.553,3.781L624.543,18.523z"/>
	<path class="st30" d="M401.647,118.122l-2.592-4.494c-0.553,1.67-1.082,3.35-1.58,5.043l2.689,4.663l2.76,4.787
		c0.436-1.792,0.912-3.567,1.408-5.337L401.647,118.122z"/>
	<path class="st30" d="M598.67,9.138l-2.684-4.663c-1.676-0.407-3.352-0.806-5.041-1.163l2.637,4.567l2.639,4.574
		c1.758,0.451,3.484,0.97,5.215,1.48L598.67,9.138z"/>
	<path class="st30" d="M522.395,7.249l2.58-4.463c-1.674,0.324-3.328,0.685-4.984,1.057l-2.643,4.572l-2.729,4.72
		c1.701-0.466,3.408-0.903,5.133-1.314L522.395,7.249z"/>
	<path class="st30" d="M496.526,15.151l-9.74-0.007c-2.572,1.197-5.111,2.452-7.613,3.773l8.627,0.004l9.674,0.005
		c3.396-1.371,6.85-2.633,10.357-3.769L496.526,15.151z"/>
	<path class="st30" d="M396.295,141.881l-4.881,8.464c-0.166,1.812-0.293,3.638-0.398,5.468h0.854v1.277l3.344-5.786l4.842-8.385
		c0.535-3.715,1.207-7.385,1.996-11.013L396.295,141.881z"/>
	<path class="st30" d="M440.418,52.737l-5.328-0.001c-1.15,1.237-2.271,2.5-3.387,3.772l5.117,0.002l5.328,0.001
		c1.215-1.273,2.438-2.538,3.693-3.771L440.418,52.737z"/>
	<path class="st30" d="M395.385,182.285l-4.459-7.73c0.152,2.938,0.393,5.856,0.699,8.754l5.111,8.869l6.07,10.535
		c-0.92-3.824-1.713-7.699-2.346-11.629L395.385,182.285z"/>
	<path class="st30" d="M594.354,322.34h3.803h0.564l0.109-0.19l2.586-4.478l11.48,0.012l10.213,0.007
		c2.705-1.187,5.365-2.447,7.994-3.771l-9.016-0.002l-10.15-0.006c-5.07,1.895-10.26,3.549-15.562,4.924L594.354,322.34z"/>
	<path class="st30" d="M400.6,209.541l-2.688,4.662c0.479,1.568,1.014,3.117,1.537,4.67l2.572-4.449l2.668-4.621
		c-0.48-1.644-0.965-3.279-1.389-4.943L400.6,209.541z"/>
	<path class="st30" d="M438.807,276.906l-5.305-0.002c1.162,1.285,2.373,2.531,3.576,3.775l5.369,0.006h5.311h0.076l5.873,10.188
		l5.061,8.774c2.367,1.732,4.783,3.396,7.244,4.998l-4.479-7.77l-5.023-8.713c-4.32-3.533-8.443-7.293-12.371-11.26h-5.332V276.906z
		"/>
	<path class="st30" d="M464.409,32.406l4.311-7.457c-2.328,1.457-4.611,2.971-6.861,4.538l-4.834,8.368l-5.578,9.654
		c2.639-2.347,5.355-4.598,8.145-6.767L464.409,32.406z"/>
	<path class="st29" d="M400.463,191.083c0.635,3.931,1.426,7.806,2.348,11.631l0.863,1.5l-0.369,0.646
		c0.422,1.662,0.906,3.301,1.385,4.942l2.158-3.737l0.035-0.066h0.74c-0.398-1.471-0.764-2.953-1.119-4.441L400.463,191.083z"/>
	<path class="st29" d="M447.692,276.912l-3.553-0.004c3.926,3.967,8.049,7.727,12.371,11.262l-5.469-9.48l0.178-0.311
		c-0.947-0.889-1.895-1.779-2.82-2.689L447.692,276.912z"/>
	<path class="st29" d="M598.071,315.906l-1.693,2.932c5.305-1.375,10.49-3.029,15.562-4.926l-10.58-0.002h-0.082l-0.236-0.412
		c-1.24,0.373-2.49,0.725-3.746,1.064L598.071,315.906z"/>
	<path class="st29" d="M459.59,40.743c-2.789,2.169-5.51,4.419-8.146,6.767l-3.021,5.232l-2.576-0.001
		c-1.256,1.234-2.479,2.498-3.693,3.771l5.34,0.003c2.104-2.109,4.295-4.136,6.521-6.12L459.59,40.743z"/>
	<path class="st29" d="M512.784,314.402l-0.059-0.093l-0.018,0.021l-10.336-0.006c5.008,1.83,10.139,3.399,15.367,4.723
		l-1.633-2.836l0.797-1.383c-1.262-0.334-2.506-0.701-3.752-1.062L512.784,314.402z"/>
	<path class="st29" d="M614.715,18.515c-3.465-1.371-6.977-2.653-10.553-3.781l-2.182-0.001h-0.086l-0.463-0.799
		c-1.729-0.51-3.455-1.029-5.213-1.48l2.475,4.281l-0.215,0.372c1.602,0.45,3.199,0.898,4.779,1.398L614.715,18.515z"/>
	<path class="st29" d="M406.979,127.376l-2.646-4.591c-0.496,1.77-0.973,3.545-1.408,5.337l0.654,1.135l-1.527,2.649
		c-0.791,3.627-1.461,7.297-1.996,11.013l5.691-9.847c0.41-1.909,0.832-3.813,1.311-5.696H406.979L406.979,127.376z"/>
	<path class="st29" d="M519.752,11.82c-1.725,0.411-3.432,0.849-5.133,1.314l-1.215,2.101l-0.055-0.098l-0.02,0.024l-5.5-0.002
		c-3.51,1.136-6.961,2.398-10.357,3.77l11.252,0.004c2.752-0.897,5.529-1.734,8.35-2.479L519.752,11.82z"/>
	<path class="st28" d="M516.731,17.045l0.344-0.592c-2.82,0.745-5.598,1.582-8.352,2.479l4.594,0.003l1.283,2.224
		c1.285-0.375,2.568-0.76,3.869-1.1L516.731,17.045z"/>
	<path class="st28" d="M407.063,127.376h-0.004c-0.48,1.882-0.902,3.787-1.312,5.696l1.174-2.032l0.062,0.096l3.164,0.002
		c0.293-1.256,0.574-2.517,0.9-3.76L407.063,127.376z"/>
	<path class="st28" d="M602.038,18.504l1.225,0.001c-1.58-0.5-3.182-0.949-4.779-1.398l-1.992,3.444
		c1.256,0.344,2.514,0.69,3.752,1.065L602.038,18.504z"/>
	<path class="st28" d="M448.399,275.689c0.926,0.91,1.873,1.801,2.82,2.688l1.982-3.433c-0.941-0.895-1.902-1.771-2.824-2.69
		L448.399,275.689z"/>
	<path class="st28" d="M451.627,54.524l2.385-4.128c-2.229,1.984-4.418,4.011-6.521,6.12h0.932l1.65,2.865
		c0.916-0.917,1.871-1.793,2.809-2.687L451.627,54.524z"/>
	<path class="st28" d="M406.967,202.218l-0.076,0.005l-0.387-0.671c0.355,1.49,0.721,2.974,1.119,4.443l4.004,0.002
		c-0.348-1.256-0.699-2.511-1.018-3.776L406.967,202.218z"/>
	<path class="st28" d="M597.295,314.562c1.254-0.343,2.506-0.691,3.746-1.064l-1.986-3.441c-1.244,0.359-2.49,0.729-3.746,1.062
		L597.295,314.562z"/>
	<path class="st28" d="M513.153,313.768c1.246,0.361,2.49,0.729,3.75,1.062l1.988-3.438c-1.264-0.323-2.504-0.707-3.752-1.063
		L513.153,313.768z"/>
	<path class="st27" d="M450.379,272.256c0.92,0.92,1.881,1.799,2.824,2.691l1.984-3.436c-0.939-0.902-1.889-1.798-2.805-2.726
		L450.379,272.256z"/>
	<path class="st27" d="M410.61,202.221c0.316,1.269,0.67,2.521,1.018,3.776l4.012,0.002c-0.355-1.258-0.736-2.506-1.066-3.778
		H410.61z"/>
	<path class="st27" d="M515.141,310.328c1.248,0.356,2.486,0.74,3.752,1.063l2.016-3.487c-1.27-0.316-2.521-0.674-3.775-1.023
		L515.141,310.328z"/>
	<path class="st27" d="M600.241,21.617c-1.24-0.375-2.496-0.721-3.752-1.065l-1.994,3.446c1.258,0.335,2.51,0.696,3.754,1.065
		L600.241,21.617z"/>
	<path class="st27" d="M518.469,20.059c-1.299,0.34-2.582,0.725-3.869,1.1l1.988,3.447c1.291-0.366,2.578-0.744,3.883-1.075
		L518.469,20.059z"/>
	<path class="st27" d="M595.309,311.117c1.256-0.334,2.502-0.701,3.746-1.062l-1.99-3.448c-1.244,0.354-2.484,0.737-3.744,1.062
		L595.309,311.117z"/>
	<path class="st27" d="M411.045,127.377c-0.326,1.244-0.609,2.504-0.902,3.76l3.961,0.002c0.305-1.26,0.619-2.514,0.955-3.761
		L411.045,127.377z"/>
	<path class="st27" d="M452.879,56.693c-0.938,0.894-1.893,1.77-2.809,2.687l2.012,3.483c0.91-0.925,1.846-1.829,2.777-2.73
		L452.879,56.693z"/>
	<path class="st26" d="M418.579,202.223l-4.008-0.002c0.328,1.272,0.709,2.521,1.068,3.778l4.016,0.002l4.014,0.002
		c-0.379-1.25-0.729-2.514-1.074-3.778L418.579,202.223z"/>
	<path class="st26" d="M419.073,127.381l-4.016-0.002c-0.334,1.247-0.648,2.5-0.955,3.761l3.963,0.003l3.965,0.002
		c0.322-1.267,0.695-2.51,1.059-3.763L419.073,127.381z"/>
	<path class="st26" d="M456.846,63.572l-1.984-3.439c-0.934,0.901-1.869,1.805-2.779,2.73l2.01,3.484l2.014,3.489
		c0.898-0.947,1.803-1.9,2.729-2.82L456.846,63.572z"/>
	<path class="st26" d="M519.122,303.436l-1.99,3.443c1.256,0.353,2.508,0.709,3.777,1.025l2.02-3.5l2.021-3.492
		c-1.279-0.303-2.562-0.594-3.83-0.928L519.122,303.436z"/>
	<path class="st26" d="M522.487,27.027l-2.016-3.497c-1.307,0.331-2.592,0.709-3.883,1.075l1.99,3.449l1.99,3.448
		c1.301-0.348,2.615-0.666,3.934-0.979L522.487,27.027z"/>
	<path class="st26" d="M596.258,28.512l1.99-3.45c-1.244-0.369-2.496-0.729-3.754-1.065l-1.994,3.45l-2.012,3.484
		c1.266,0.318,2.52,0.676,3.775,1.028L596.258,28.512z"/>
	<path class="st26" d="M591.305,304.176l2.016,3.494c1.26-0.324,2.5-0.707,3.744-1.063l-1.988-3.452l-1.988-3.444
		c-1.258,0.345-2.521,0.662-3.801,0.972L591.305,304.176z"/>
	<path class="st26" d="M454.397,265.307l-2.012,3.482c0.916,0.926,1.861,1.82,2.803,2.723l1.984-3.436l1.992-3.445
		c-0.939-0.918-1.846-1.865-2.754-2.812L454.397,265.307z"/>
	<path class="st25" d="M423.088,127.382c-0.363,1.252-0.734,2.496-1.059,3.763l4,0.001c0.332-1.264,0.699-2.513,1.064-3.762
		L423.088,127.382z"/>
	<path class="st25" d="M524.502,30.523c-1.314,0.313-2.633,0.631-3.932,0.979l1.986,3.448c1.311-0.34,2.639-0.629,3.965-0.931
		L524.502,30.523z"/>
	<path class="st25" d="M587.993,298.291l-0.062,0.033l1.355,2.355c1.277-0.31,2.545-0.63,3.803-0.974l-1.885-3.271l0.053-0.026
		l-0.1-0.168c-1.262,0.332-2.539,0.625-3.814,0.924L587.993,298.291z"/>
	<path class="st25" d="M521.118,299.986c1.268,0.334,2.551,0.625,3.83,0.926l2.02-3.496c-1.285-0.287-2.578-0.564-3.852-0.893
		L521.118,299.986z"/>
	<path class="st25" d="M594.266,31.959c-1.256-0.352-2.512-0.71-3.777-1.028l-2.023,3.497c1.277,0.308,2.545,0.635,3.812,0.979
		L594.266,31.959z"/>
	<path class="st25" d="M456.413,261.818c0.906,0.947,1.814,1.896,2.752,2.812l1.986-3.435c-0.934-0.932-1.826-1.901-2.73-2.854
		L456.413,261.818z"/>
	<path class="st25" d="M422.594,202.225c0.346,1.267,0.695,2.528,1.074,3.778l4.023,0.002c-0.393-1.248-0.729-2.519-1.084-3.778
		L422.594,202.225z"/>
	<path class="st25" d="M458.831,67.017c-0.926,0.92-1.826,1.873-2.729,2.82l2.01,3.482c0.896-0.956,1.789-1.917,2.717-2.846
		L458.831,67.017z"/>
	<path class="st24" d="M426.608,202.227c0.357,1.263,0.693,2.53,1.084,3.778h4.066c-0.406-1.25-0.779-2.512-1.146-3.776
		L426.608,202.227z"/>
	<path class="st24" d="M523.116,296.523c1.273,0.328,2.566,0.604,3.854,0.893l2.018-3.484c-1.291-0.279-2.574-0.576-3.854-0.891
		L523.116,296.523z"/>
	<path class="st24" d="M526.87,34.763l0.057-0.039l-0.402-0.705c-1.324,0.301-2.654,0.591-3.965,0.931l0.992,1.721l-0.053,0.038
		l1,1.729c1.311-0.331,2.635-0.624,3.961-0.915L526.87,34.763z"/>
	<path class="st24" d="M427.096,127.384c-0.365,1.25-0.732,2.499-1.064,3.762l4,0.003c0.342-1.26,0.691-2.519,1.068-3.763
		L427.096,127.384z"/>
	<path class="st24" d="M458.422,258.342c0.902,0.953,1.795,1.924,2.729,2.855l2.006-3.471c-0.924-0.939-1.83-1.898-2.727-2.863
		L458.422,258.342z"/>
	<path class="st24" d="M587.342,297.166c1.275-0.299,2.555-0.592,3.814-0.924l-1.988-3.453c-1.27,0.326-2.553,0.605-3.836,0.891
		L587.342,297.166z"/>
	<path class="st24" d="M461.819,72.316l0.051-0.033l-1.043-1.81c-0.926,0.93-1.82,1.891-2.715,2.846l0.486,0.851l-0.055,0.041
		l1.521,2.637c0.895-0.967,1.805-1.914,2.723-2.854L461.819,72.316z"/>
	<path class="st24" d="M592.274,35.408c-1.266-0.346-2.531-0.672-3.811-0.979l-2.014,3.486c1.283,0.299,2.564,0.597,3.834,0.933
		L592.274,35.408z"/>
	<path class="st23" d="M430.612,202.229c0.367,1.268,0.74,2.526,1.146,3.776l4.074,0.002c-0.416-1.252-0.828-2.51-1.207-3.778
		H430.612z"/>
	<path class="st23" d="M590.286,38.847c-1.27-0.336-2.551-0.634-3.834-0.933l-2.023,3.495c1.295,0.287,2.588,0.563,3.863,0.89
		L590.286,38.847z"/>
	<path class="st23" d="M431.1,127.386c-0.377,1.245-0.727,2.503-1.068,3.763l4.016,0.003c0.355-1.258,0.699-2.521,1.092-3.765
		L431.1,127.386z"/>
	<path class="st23" d="M462.788,73.994c-0.918,0.939-1.828,1.887-2.723,2.854l2.023,3.506c0.881-0.976,1.797-1.922,2.709-2.871
		L462.788,73.994z"/>
	<path class="st23" d="M460.43,254.865c0.896,0.963,1.803,1.924,2.727,2.861l2.014-3.488c-0.914-0.945-1.84-1.885-2.725-2.857
		L460.43,254.865z"/>
	<path class="st23" d="M525.133,293.041c1.275,0.314,2.561,0.609,3.852,0.891l2.023-3.5c-1.297-0.266-2.572-0.584-3.855-0.889
		L525.133,293.041z"/>
	<path class="st23" d="M585.333,293.678c1.283-0.285,2.566-0.562,3.836-0.889l-2.016-3.492c-1.271,0.311-2.551,0.609-3.838,0.885
		L585.333,293.678z"/>
	<path class="st23" d="M528.459,37.525c-1.326,0.291-2.65,0.583-3.961,0.915l2.014,3.498c1.316-0.319,2.635-0.638,3.965-0.915
		L528.459,37.525z"/>
	<path class="st22" d="M462.446,251.379c0.885,0.975,1.809,1.912,2.725,2.859l2.012-3.48c-0.914-0.959-1.816-1.92-2.697-2.908
		L462.446,251.379z"/>
	<path class="st22" d="M435.137,127.387c-0.393,1.244-0.736,2.507-1.092,3.765l4.012,0.003c0.369-1.265,0.75-2.521,1.154-3.767
		L435.137,127.387z"/>
	<path class="st22" d="M434.627,202.229c0.379,1.271,0.789,2.526,1.207,3.778l4.074,0.004c-0.436-1.258-0.875-2.508-1.27-3.78
		L434.627,202.229z"/>
	<path class="st22" d="M464.797,77.482c-0.91,0.949-1.826,1.895-2.709,2.871l2.041,3.538c0.877-0.991,1.771-1.963,2.678-2.925
		L464.797,77.482z"/>
	<path class="st22" d="M588.292,42.299c-1.275-0.327-2.568-0.603-3.863-0.89l-2.02,3.497c1.295,0.275,2.582,0.576,3.861,0.891
		L588.292,42.299z"/>
	<path class="st22" d="M527.153,289.543c1.281,0.305,2.559,0.623,3.854,0.889l2.051-3.553c-1.303-0.254-2.594-0.539-3.883-0.828
		L527.153,289.543z"/>
	<path class="st22" d="M530.475,41.023c-1.328,0.277-2.645,0.595-3.963,0.915l2.018,3.496c1.32-0.307,2.643-0.614,3.98-0.878
		L530.475,41.023z"/>
	<path class="st22" d="M583.315,290.182c1.287-0.274,2.564-0.572,3.838-0.885l-2.02-3.5c-1.277,0.301-2.551,0.613-3.842,0.877
		L583.315,290.182z"/>
	<path class="st21" d="M532.51,44.555c-1.338,0.264-2.66,0.571-3.98,0.878l2.018,3.497c1.33-0.296,2.666-0.567,4.018-0.82
		L532.51,44.555z"/>
	<path class="st21" d="M464.483,247.85c0.881,0.988,1.783,1.949,2.697,2.908l2.012-3.48c-0.906-0.969-1.795-1.959-2.666-2.961
		L464.483,247.85z"/>
	<path class="st21" d="M438.641,202.23c0.395,1.272,0.834,2.522,1.27,3.78l4.076,0.001c-0.447-1.25-0.871-2.511-1.279-3.779
		L438.641,202.23z"/>
	<path class="st21" d="M529.176,286.049c1.289,0.291,2.58,0.576,3.883,0.828l2.059-3.555c-1.316-0.242-2.623-0.486-3.922-0.771
		L529.176,286.049z"/>
	<path class="st21" d="M586.272,45.796c-1.281-0.315-2.566-0.615-3.863-0.891l-2.029,3.51c1.301,0.262,2.588,0.572,3.873,0.875
		L586.272,45.796z"/>
	<path class="st21" d="M466.807,80.966c-0.906,0.961-1.801,1.934-2.678,2.925l2.039,3.536c0.869-1.003,1.746-2.002,2.65-2.977
		L466.807,80.966z"/>
	<path class="st21" d="M581.293,286.674c1.291-0.264,2.562-0.576,3.842-0.877l-2.012-3.494c-1.291,0.291-2.58,0.566-3.879,0.816
		L581.293,286.674z"/>
	<path class="st21" d="M439.211,127.388c-0.404,1.247-0.785,2.502-1.154,3.767l4.014,0.001c0.381-1.266,0.795-2.518,1.217-3.765
		L439.211,127.388z"/>
	<path class="st20" d="M584.252,49.291c-1.285-0.303-2.572-0.613-3.873-0.875l-2.051,3.547c1.311,0.25,2.611,0.525,3.904,0.817
		L584.252,49.291z"/>
	<path class="st20" d="M442.706,202.232c0.408,1.27,0.834,2.528,1.281,3.778l4.021,0.003l0.23,0.397
		c-0.521-1.377-0.998-2.774-1.467-4.179H442.706z"/>
	<path class="st20" d="M468.819,84.451c-0.904,0.975-1.781,1.973-2.65,2.977l2.035,3.531c0.861-1.019,1.725-2.038,2.621-3.024
		L468.819,84.451z"/>
	<path class="st20" d="M443.288,127.391c-0.422,1.247-0.836,2.499-1.217,3.765l4.006,0.003c0.395-1.269,0.836-2.518,1.273-3.767
		L443.288,127.391z"/>
	<path class="st20" d="M468.276,241.287l-1.75,3.027c0.871,1.002,1.76,1.992,2.666,2.963l2.006-3.475
		c-1.541-1.685-3.027-3.421-4.471-5.193L468.276,241.287z"/>
	<path class="st20" d="M531.194,282.553c1.301,0.281,2.605,0.527,3.922,0.771l1.527-2.646l0.043-0.062l6.359,0.006
		c-3.32-0.389-6.609-0.889-9.836-1.553L531.194,282.553z"/>
	<path class="st20" d="M577.807,280.631l1.439,2.488c1.299-0.25,2.588-0.525,3.877-0.816l-2.014-3.49
		c-3.613,0.779-7.289,1.386-11.021,1.818H577.807z"/>
	<path class="st20" d="M534.563,48.11c-1.35,0.252-2.686,0.523-4.016,0.82l2.01,3.487c1.34-0.283,2.691-0.524,4.045-0.761
		L534.563,48.11z"/>
	<path class="st19" d="M577.807,276.861l-8.676-0.002c-4.111,0.459-8.285,0.715-12.52,0.715c-4.271,0-8.48-0.262-12.625-0.729
		l-7.297-0.004L536,275.646c-1.723-0.318-3.434-0.683-5.129-1.082l2.467,4.278l-0.129,0.226c3.229,0.664,6.516,1.162,9.836,1.551
		l27.043,0.014c3.732-0.436,7.406-1.039,11.021-1.818l-0.1-0.168l2.518-4.354c-1.613,0.398-3.23,0.771-4.869,1.102L577.807,276.861z
		"/>
	<path class="st19" d="M471.754,239.387h-0.078l-1.619-2.796c-7.793-9.5-14.051-20.308-18.4-32.039l-0.246-0.432l0.051-0.086
		c-0.574-1.572-1.109-3.166-1.613-4.771l-1.762,3.041l-0.053-0.094l-0.018,0.021h-1.242c0.469,1.401,0.945,2.8,1.467,4.178
		l9.996,17.367l-0.053,0.021l8.545,14.809c1.441,1.773,2.93,3.512,4.471,5.194l0.416-0.72l0.062,0.1l4.271,0.004
		c-1.191-1.24-2.355-2.506-3.488-3.801L471.754,239.387L471.754,239.387z"/>
	<path class="st19" d="M638.731,243.045v-1.38c-0.436,0.467-0.875,0.921-1.316,1.38H638.731z"/>
	<path class="st19" d="M471.969,89.785h-0.078l-1.064-1.851c-0.896,0.987-1.76,2.006-2.623,3.024l0.48,0.831l-20.58,35.604h-0.754
		c-0.438,1.249-0.879,2.498-1.273,3.767l2.023,0.001l1.33,2.308c4.947-16.481,13.58-31.361,24.955-43.682L471.969,89.785z"/>
	<path class="st19" d="M583.094,56.94l-1.629-2.827l0.77-1.333c-1.295-0.292-2.596-0.567-3.904-0.817l-0.221,0.378l-41.035-0.022
		h-0.088l-0.385-0.664c-1.354,0.237-2.705,0.479-4.045,0.761l1.033,1.792l-1.287,2.229c7.828-1.736,15.957-2.679,24.311-2.679
		C565.739,53.759,574.602,54.877,583.094,56.94z"/>
	<path class="st18" d="M578.659,275.393c1.639-0.328,3.256-0.701,4.869-1.102l2.732-4.729c-1.645,0.465-3.303,0.896-4.98,1.289
		L578.659,275.393z"/>
	<path class="st18" d="M461.612,221.848l-9.955-17.296c4.35,11.732,10.607,22.539,18.4,32.039l-8.504-14.711L461.612,221.848z"/>
	<path class="st18" d="M637.032,93.526l1.699,0.001v-3.771l-5.256-0.003C634.692,90.983,635.875,92.242,637.032,93.526z"/>
	<path class="st18" d="M536.932,55.985l0.059,0.102l41.119,0.011l2.43,4.212c1.771,0.401,3.527,0.846,5.268,1.333l-2.711-4.703
		c-8.49-2.062-17.354-3.181-26.48-3.181c-8.355,0-16.48,0.943-24.312,2.679l-2.645,4.573c1.666-0.428,3.346-0.815,5.041-1.164
		L536.932,55.985z"/>
	<path class="st18" d="M451.448,129.169l20.578-35.606l4.135,0.002c1.154-1.288,2.338-2.546,3.553-3.777l-5.328-0.003
		c-11.375,12.321-20.008,27.201-24.955,43.682l2.689,4.663c0.459-1.748,0.965-3.477,1.508-5.19L451.448,129.169z"/>
	<path class="st18" d="M533.434,271.193c-1.766-0.387-3.516-0.812-5.244-1.285l2.682,4.656c1.697,0.399,3.406,0.762,5.131,1.08
		L533.434,271.193z"/>
	<path class="st18" d="M556.612,277.574c4.234,0,8.408-0.256,12.52-0.715l-25.145-0.014
		C548.133,277.312,552.342,277.574,556.612,277.574z"/>
	<path class="st18" d="M454.032,199.591c-0.541-1.635-1.043-3.289-1.506-4.957l-2.68,4.63c0.504,1.604,1.039,3.198,1.613,4.771
		L454.032,199.591z"/>
	<path class="st18" d="M472.459,239.387c1.135,1.293,2.299,2.559,3.488,3.799l5.438,0.002c-1.27-1.235-2.518-2.5-3.729-3.797
		L472.459,239.387z"/>
	<path class="st18" d="M631.989,243.044l5.426,0.002c0.441-0.459,0.883-0.913,1.316-1.38v-2.421l-3.029-0.002
		c-0.883,0.95-1.771,1.903-2.689,2.823C632.68,242.4,632.327,242.713,631.989,243.044z"/>
	<path class="st17" d="M581.28,270.852c1.678-0.393,3.338-0.824,4.98-1.289l2.828-4.899c-1.688,0.555-3.395,1.065-5.123,1.535
		L581.28,270.852z"/>
	<path class="st17" d="M530.801,266.623c-1.814-0.461-3.609-0.971-5.387-1.527l2.775,4.812c1.729,0.473,3.479,0.898,5.242,1.285
		L530.801,266.623z"/>
	<path class="st17" d="M583.194,64.915c1.826,0.481,3.631,1.017,5.418,1.593l-2.807-4.864c-1.74-0.487-3.496-0.931-5.268-1.333
		L583.194,64.915z"/>
	<path class="st17" d="M631.989,243.044c0.338-0.33,0.691-0.646,1.023-0.978c0.918-0.92,1.807-1.873,2.689-2.823l-5.324-0.003
		c-1.301,1.304-2.637,2.564-4.002,3.799L631.989,243.044z"/>
	<path class="st17" d="M481.442,93.569c1.234-1.292,2.506-2.55,3.809-3.776l-5.537-0.004c-1.215,1.231-2.396,2.49-3.553,3.777
		L481.442,93.569z"/>
	<path class="st17" d="M534.698,59.847c-1.693,0.349-3.375,0.736-5.039,1.164l-2.775,4.797c1.707-0.507,3.436-0.97,5.172-1.39
		L534.698,59.847z"/>
	<path class="st17" d="M456.659,195.055c-0.504-1.714-0.959-3.438-1.377-5.187l-2.756,4.766c0.463,1.668,0.965,3.322,1.506,4.957
		L456.659,195.055z"/>
	<path class="st17" d="M477.661,239.391c1.211,1.297,2.455,2.562,3.729,3.797l5.637,0.004c-1.373-1.232-2.719-2.494-4.025-3.799
		L477.661,239.391z"/>
	<path class="st17" d="M627.93,89.752c1.305,1.225,2.574,2.483,3.812,3.772l5.289,0.003c-1.156-1.285-2.34-2.543-3.557-3.772
		L627.93,89.752z"/>
	<path class="st17" d="M453.625,132.941c-0.543,1.713-1.047,3.442-1.508,5.19l2.811,4.872c0.406-1.832,0.863-3.643,1.363-5.438
		L453.625,132.941z"/>
	<path class="st16" d="M532.055,64.419c-1.738,0.42-3.465,0.883-5.172,1.39l-2.879,4.984c1.756-0.603,3.531-1.159,5.33-1.666
		L532.055,64.419z"/>
	<path class="st16" d="M482.999,239.393c1.309,1.305,2.652,2.564,4.025,3.799l5.918,0.002c-1.486-1.223-2.93-2.492-4.342-3.797
		L482.999,239.393z"/>
	<path class="st16" d="M622.155,89.749c1.41,1.219,2.787,2.477,4.131,3.772l5.457,0.003c-1.238-1.289-2.51-2.547-3.812-3.772
		L622.155,89.749z"/>
	<path class="st16" d="M456.292,137.565c-0.5,1.795-0.957,3.606-1.363,5.438l2.932,5.079c0.342-1.935,0.734-3.852,1.188-5.747
		L456.292,137.565z"/>
	<path class="st16" d="M626.377,243.04c1.365-1.233,2.699-2.495,4-3.799l-5.586-0.002c-1.406,1.302-2.836,2.575-4.314,3.797
		L626.377,243.04z"/>
	<path class="st16" d="M486.883,93.571c1.346-1.297,2.723-2.554,4.131-3.776l-5.764-0.003c-1.303,1.226-2.572,2.485-3.809,3.776
		L486.883,93.571z"/>
	<path class="st16" d="M528.043,261.84c-1.873-0.557-3.727-1.152-5.551-1.811l2.922,5.063c1.775,0.558,3.572,1.066,5.387,1.527
		L528.043,261.84z"/>
	<path class="st16" d="M585.959,69.715c1.887,0.577,3.75,1.207,5.588,1.89l-2.936-5.097c-1.787-0.576-3.592-1.112-5.418-1.593
		L585.959,69.715z"/>
	<path class="st16" d="M459.364,190.376c-0.455-1.802-0.854-3.625-1.211-5.465l-2.871,4.957c0.418,1.746,0.873,3.473,1.377,5.187
		L459.364,190.376z"/>
	<path class="st16" d="M583.967,266.197c1.729-0.469,3.434-0.98,5.123-1.535l2.967-5.135c-1.748,0.662-3.51,1.283-5.305,1.846
		L583.967,266.197z"/>
	<path class="st15" d="M459.045,142.335c-0.451,1.895-0.846,3.812-1.188,5.747l3.082,5.346c0.26-2.063,0.576-4.11,0.967-6.132
		L459.045,142.335z"/>
	<path class="st15" d="M586.752,261.373c1.795-0.561,3.557-1.184,5.305-1.846l3.143-5.438c-1.816,0.793-3.654,1.55-5.527,2.231
		L586.752,261.373z"/>
	<path class="st15" d="M620.479,243.036c1.477-1.222,2.906-2.495,4.312-3.797l-5.807-0.005c-1.539,1.311-3.111,2.586-4.738,3.8
		L620.479,243.036z"/>
	<path class="st15" d="M588.854,74.732c1.963,0.697,3.898,1.448,5.803,2.265l-3.109-5.393c-1.838-0.683-3.701-1.312-5.588-1.89
		L588.854,74.732z"/>
	<path class="st15" d="M616.096,89.745c1.547,1.213,3.061,2.468,4.529,3.772l5.66,0.004c-1.344-1.295-2.721-2.553-4.131-3.772
		L616.096,89.745z"/>
	<path class="st15" d="M525.184,256.877c-1.947-0.676-3.877-1.389-5.766-2.178l3.074,5.33c1.824,0.658,3.678,1.254,5.551,1.812
		L525.184,256.877z"/>
	<path class="st15" d="M529.334,69.127c-1.799,0.507-3.574,1.063-5.33,1.666l-3.021,5.226c1.816-0.724,3.662-1.396,5.533-2.011
		L529.334,69.127z"/>
	<path class="st15" d="M492.534,93.574c1.469-1.305,2.98-2.56,4.523-3.774l-6.045-0.004c-1.408,1.222-2.785,2.479-4.129,3.776
		L492.534,93.574z"/>
	<path class="st15" d="M488.6,239.396c1.414,1.305,2.855,2.574,4.342,3.797l6.268,0.005c-1.639-1.214-3.225-2.485-4.779-3.798
		L488.6,239.396z"/>
	<path class="st15" d="M462.188,185.498c-0.398-1.91-0.734-3.844-1.021-5.792l-3.014,5.207c0.357,1.842,0.756,3.664,1.211,5.467
		L462.188,185.498z"/>
	<path class="st14" d="M591.909,80.036c2.078,0.857,4.113,1.792,6.107,2.793l-3.359-5.832c-1.904-0.817-3.84-1.568-5.803-2.265
		L591.909,80.036z"/>
	<path class="st14" d="M494.428,239.4c1.557,1.312,3.143,2.584,4.779,3.798l6.777,0.003c-1.846-1.206-3.646-2.469-5.395-3.799
		L494.428,239.4z"/>
	<path class="st14" d="M461.907,147.295c-0.389,2.021-0.707,4.067-0.967,6.132l3.311,5.746c0.154-2.229,0.381-4.437,0.689-6.619
		L461.907,147.295z"/>
	<path class="st14" d="M589.67,256.322c1.873-0.684,3.711-1.438,5.529-2.23l3.395-5.883c-1.904,0.973-3.84,1.9-5.818,2.742
		L589.67,256.322z"/>
	<path class="st14" d="M465.17,180.346c-0.328-2.055-0.582-4.131-0.77-6.228l-3.234,5.586c0.285,1.948,0.623,3.883,1.021,5.793
		L465.17,180.346z"/>
	<path class="st14" d="M526.516,74.008c-1.873,0.614-3.717,1.287-5.533,2.011l-3.23,5.584c1.896-0.877,3.822-1.693,5.785-2.443
		L526.516,74.008z"/>
	<path class="st14" d="M614.247,243.034c1.627-1.214,3.199-2.489,4.738-3.8l-6.137-0.004c-1.732,1.328-3.514,2.595-5.34,3.799
		L614.247,243.034z"/>
	<path class="st14" d="M609.618,89.742c1.721,1.203,3.398,2.458,5.029,3.772l5.979,0.002c-1.471-1.304-2.982-2.559-4.529-3.772
		L609.618,89.742z"/>
	<path class="st14" d="M498.495,93.577c1.629-1.313,3.309-2.569,5.023-3.773l-6.461-0.003c-1.543,1.215-3.055,2.469-4.523,3.774
		L498.495,93.577z"/>
	<path class="st14" d="M522.161,251.631c-2.049-0.822-4.068-1.699-6.043-2.66l3.301,5.729c1.889,0.789,3.816,1.502,5.766,2.178
		L522.161,251.631z"/>
	<path class="st13" d="M602.592,89.737c1.943,1.18,3.826,2.451,5.666,3.772l6.391,0.004c-1.633-1.314-3.311-2.57-5.029-3.772
		L602.592,89.737z"/>
	<path class="st13" d="M592.776,250.951c1.979-0.842,3.912-1.771,5.816-2.74l2.955-5.111l0.045-0.072l5.916,0.004
		c1.826-1.205,3.605-2.471,5.34-3.799l-6.564-0.002c-3.232,2.188-6.631,4.149-10.148,5.902L592.776,250.951z"/>
	<path class="st13" d="M523.538,79.16c-1.963,0.75-3.893,1.565-5.787,2.443l-3.498,6.054c1.986-1.081,4.031-2.066,6.105-2.996
		L523.538,79.16z"/>
	<path class="st13" d="M595.182,85.712c2.234,1.079,4.402,2.261,6.523,3.516l-3.689-6.399c-1.994-1.001-4.027-1.936-6.105-2.793
		L595.182,85.712z"/>
	<path class="st13" d="M504.866,93.581c1.836-1.322,3.715-2.593,5.65-3.773l-6.998-0.004c-1.717,1.204-3.395,2.46-5.023,3.773
		L504.866,93.581z"/>
	<path class="st13" d="M468.334,174.875c-0.229-2.254-0.352-4.539-0.414-6.841l-3.52,6.084c0.188,2.097,0.438,4.173,0.77,6.228
		L468.334,174.875z"/>
	<path class="st13" d="M464.94,152.554c-0.309,2.182-0.533,4.391-0.688,6.619l3.613,6.271c0.006-2.442,0.133-4.854,0.332-7.246
		L464.94,152.554z"/>
	<path class="st13" d="M518.932,246.029c-4.082-1.92-8.002-4.129-11.717-6.622l-6.621-0.005c1.746,1.33,3.547,2.593,5.391,3.799
		l6.811,0.004l3.322,5.768c1.975,0.961,3.996,1.838,6.045,2.66L518.932,246.029z"/>
	<path class="st11" d="M602,89.737l-0.295-0.51c-2.121-1.254-4.289-2.437-6.523-3.516l3.471,6.017l-0.084,0.149
		c1.096,0.627,2.176,1.274,3.246,1.946l0.145-0.255L602,93.505l6.258,0.004c-1.84-1.322-3.721-2.593-5.664-3.772H602z"/>
	<path class="st11" d="M516.542,240.512c-1.115-0.601-2.215-1.228-3.301-1.875l-0.447,0.772l-5.578-0.005
		c3.715,2.494,7.635,4.703,11.717,6.623l-2.783-4.834L516.542,240.512z"/>
	<path class="st11" d="M511.784,93.586c1.67-1.041,3.377-2.024,5.117-2.949l3.455-5.976c-2.072,0.93-4.117,1.915-6.104,2.996
		l-1.246,2.153l-2.49-0.001c-1.936,1.181-3.814,2.452-5.65,3.773L511.784,93.586z"/>
	<path class="st11" d="M598.387,241.236l-2.252,3.896c3.518-1.753,6.916-3.717,10.148-5.903l-4.607-0.004h-0.07l-0.67-1.154
		c-1.074,0.658-2.168,1.293-3.275,1.904L598.387,241.236z"/>
	<path class="st11" d="M471.801,168.883c-0.037-1.07-0.08-2.138-0.08-3.217c0-0.438,0.025-0.868,0.033-1.303l-3.557-6.167
		c-0.199,2.391-0.326,4.804-0.332,7.246l0.773,1.347l-0.721,1.246c0.062,2.302,0.188,4.586,0.414,6.841L471.801,168.883z"/>
	<path class="st9" d="M597.659,239.975c1.107-0.611,2.203-1.246,3.275-1.904l-1.924-3.34c-1.074,0.662-2.166,1.297-3.273,1.908
		L597.659,239.975z"/>
	<path class="st9" d="M471.991,168.564l3.656,0.002c-0.033-0.965-0.074-1.928-0.074-2.9c0-0.295,0.02-0.584,0.02-0.878l-3.594-0.002
		l-0.244-0.422c-0.008,0.435-0.033,0.864-0.033,1.303c0,1.079,0.041,2.147,0.08,3.217l0.146-0.252L471.991,168.564z"/>
	<path class="st9" d="M596.639,95.213c1.1,0.625,2.18,1.273,3.244,1.948l1.932-3.337c-1.07-0.672-2.15-1.319-3.246-1.946
		L596.639,95.213z"/>
	<path class="st9" d="M637.59,168.176h1.141v-3.773h-1.107c0.006,0.423,0.029,0.841,0.029,1.265
		C637.653,166.508,637.614,167.339,637.59,168.176z"/>
	<path class="st9" d="M518.469,237.171c-1.113-0.596-2.215-1.221-3.301-1.866l-1.928,3.331c1.086,0.647,2.186,1.275,3.301,1.875
		L518.469,237.171z"/>
	<path class="st9" d="M513.151,93.586l1.561,2.707c1.076-0.653,2.168-1.284,3.275-1.885l-1.629-2.829l0.543-0.942
		c-1.74,0.925-3.447,1.908-5.117,2.949h1.287H513.151L513.151,93.586z"/>
	<path class="st7" d="M594.709,98.554c1.098,0.624,2.18,1.275,3.24,1.951l1.934-3.344c-1.064-0.675-2.145-1.323-3.244-1.948
		L594.709,98.554z"/>
	<path class="st7" d="M520.403,233.828c-1.115-0.596-2.219-1.217-3.305-1.863l-1.932,3.342c1.086,0.646,2.188,1.271,3.303,1.867
		L520.403,233.828z"/>
	<path class="st7" d="M475.647,168.566l3.859,0.002c-0.035-0.965-0.074-1.93-0.074-2.902c0-0.293,0.02-0.583,0.023-0.876
		l-3.863-0.001c-0.002,0.294-0.02,0.583-0.02,0.878C475.573,166.641,475.614,167.604,475.647,168.566z"/>
	<path class="st7" d="M633.729,168.173l3.861,0.003c0.023-0.836,0.062-1.667,0.062-2.509c0-0.424-0.025-0.842-0.029-1.265
		l-3.863-0.002c0.006,0.423,0.031,0.842,0.031,1.267C633.792,166.507,633.756,167.339,633.729,168.173z"/>
	<path class="st7" d="M516.639,99.635c1.074-0.654,2.17-1.279,3.279-1.881l-1.932-3.347c-1.107,0.602-2.199,1.232-3.275,1.885
		L516.639,99.635z"/>
	<path class="st7" d="M595.737,236.639c1.107-0.611,2.199-1.246,3.273-1.908l-1.932-3.347c-1.074,0.662-2.164,1.302-3.271,1.912
		L595.737,236.639z"/>
	<path class="st6" d="M518.569,102.983c1.074-0.654,2.172-1.279,3.279-1.878l-1.932-3.352c-1.107,0.602-2.205,1.228-3.279,1.881
		L518.569,102.983z"/>
	<path class="st6" d="M593.809,233.296c1.107-0.61,2.197-1.25,3.271-1.912l-1.934-3.35c-1.072,0.664-2.16,1.305-3.271,1.914
		L593.809,233.296z"/>
	<path class="st6" d="M629.868,168.171l3.861,0.001c0.025-0.833,0.062-1.666,0.062-2.506c0-0.425-0.025-0.844-0.031-1.268h-3.859
		c0.006,0.424,0.029,0.843,0.029,1.269C629.93,166.507,629.897,167.338,629.868,168.171z"/>
	<path class="st6" d="M592.776,101.898c1.1,0.625,2.178,1.277,3.24,1.956l1.934-3.349c-1.062-0.676-2.143-1.327-3.24-1.951
		L592.776,101.898z"/>
	<path class="st6" d="M479.506,168.568l3.863,0.002c-0.039-0.963-0.074-1.93-0.074-2.903c0-0.293,0.02-0.582,0.021-0.874
		l-3.861-0.003c-0.004,0.293-0.021,0.583-0.021,0.876C479.434,166.641,479.471,167.604,479.506,168.568z"/>
	<path class="st6" d="M522.336,230.477c-1.115-0.593-2.221-1.209-3.301-1.855l-1.939,3.344c1.086,0.646,2.189,1.27,3.307,1.863
		L522.336,230.477z"/>
	<path class="st5" d="M483.37,168.57l3.859,0.003c-0.037-0.966-0.074-1.933-0.074-2.907c0-0.292,0.02-0.581,0.021-0.871
		l-3.859-0.002c-0.002,0.292-0.021,0.58-0.021,0.874C483.295,166.641,483.331,167.607,483.37,168.57z"/>
	<path class="st5" d="M524.272,227.13c-1.121-0.588-2.227-1.203-3.307-1.854l-1.932,3.343c1.08,0.647,2.186,1.266,3.303,1.856
		L524.272,227.13z"/>
	<path class="st5" d="M591.879,229.95c1.107-0.61,2.195-1.25,3.27-1.913l-1.932-3.348c-1.072,0.666-2.158,1.311-3.268,1.918
		L591.879,229.95z"/>
	<path class="st5" d="M626.006,168.17l3.861,0.001c0.025-0.833,0.061-1.665,0.061-2.505c0-0.425-0.021-0.846-0.027-1.27h-3.861
		c0.006,0.422,0.029,0.843,0.029,1.27C626.069,166.505,626.034,167.338,626.006,168.17z"/>
	<path class="st5" d="M520.497,106.33c1.074-0.657,2.172-1.28,3.283-1.877l-1.932-3.348c-1.107,0.599-2.205,1.224-3.279,1.878
		L520.497,106.33z"/>
	<path class="st5" d="M590.844,105.24c1.102,0.624,2.178,1.277,3.24,1.958l1.932-3.344c-1.062-0.679-2.141-1.331-3.24-1.956
		L590.844,105.24z"/>
	<path class="st4" d="M589.95,226.607c1.107-0.607,2.193-1.252,3.268-1.918l-1.932-3.347c-1.068,0.669-2.152,1.312-3.26,1.921
		L589.95,226.607z"/>
	<path class="st4" d="M487.229,168.573l3.861,0.001c-0.045-0.965-0.074-1.932-0.074-2.908c0-0.291,0.02-0.579,0.021-0.869
		l-3.861-0.002c-0.002,0.291-0.021,0.579-0.021,0.871C487.155,166.641,487.192,167.607,487.229,168.573z"/>
	<path class="st4" d="M526.204,223.787c-1.119-0.588-2.229-1.197-3.307-1.85l-1.932,3.34c1.08,0.649,2.186,1.266,3.307,1.854
		L526.204,223.787z"/>
	<path class="st4" d="M522.424,109.677c1.074-0.658,2.172-1.281,3.285-1.876l-1.93-3.347c-1.111,0.597-2.209,1.22-3.283,1.877
		L522.424,109.677z"/>
	<path class="st4" d="M622.145,168.169l3.861,0.002c0.027-0.833,0.062-1.665,0.062-2.504c0-0.427-0.023-0.847-0.029-1.271h-3.863
		c0.008,0.424,0.033,0.844,0.033,1.271C622.208,166.505,622.178,167.336,622.145,168.169z"/>
	<path class="st4" d="M588.915,108.582c1.1,0.624,2.176,1.277,3.234,1.96l1.936-3.344c-1.061-0.682-2.141-1.334-3.24-1.958
		L588.915,108.582z"/>
	<path class="st3" d="M491.09,168.574l3.852,0.003c-0.043-0.966-0.074-1.935-0.074-2.911c0-0.291,0.02-0.577,0.021-0.867
		l-3.85-0.002c-0.004,0.291-0.021,0.578-0.021,0.869C491.018,166.643,491.047,167.609,491.09,168.574z"/>
	<path class="st3" d="M588.026,223.264c1.107-0.606,2.189-1.253,3.26-1.921l-1.928-3.338c-1.066,0.668-2.146,1.317-3.258,1.922
		L588.026,223.264z"/>
	<path class="st3" d="M618.295,168.166l3.85,0.002c0.033-0.832,0.062-1.663,0.062-2.502c0-0.427-0.023-0.848-0.033-1.271
		l-3.85-0.002c0.01,0.424,0.033,0.846,0.033,1.273C618.358,166.505,618.329,167.336,618.295,168.166z"/>
	<path class="st3" d="M528.133,220.448c-1.123-0.584-2.229-1.192-3.309-1.843l-1.928,3.332c1.076,0.649,2.188,1.262,3.307,1.85
		L528.133,220.448z"/>
	<path class="st3" d="M524.35,113.016c1.074-0.659,2.172-1.282,3.285-1.875l-1.926-3.34c-1.113,0.596-2.211,1.218-3.285,1.876
		L524.35,113.016z"/>
	<path class="st3" d="M586.989,111.916c1.1,0.622,2.178,1.277,3.23,1.963l1.93-3.337c-1.059-0.684-2.137-1.336-3.234-1.96
		L586.989,111.916z"/>
	<path class="st2" d="M586.1,219.927c1.111-0.604,2.191-1.254,3.26-1.922l-1.953-3.389c-1.068,0.672-2.125,1.358-3.236,1.963
		L586.1,219.927z"/>
	<path class="st2" d="M585.045,115.281c1.1,0.623,2.18,1.274,3.232,1.964l1.939-3.365c-1.053-0.687-2.131-1.341-3.229-1.963
		L585.045,115.281z"/>
	<path class="st2" d="M526.313,116.418c1.07-0.662,2.145-1.322,3.264-1.914l-1.941-3.363c-1.111,0.593-2.211,1.216-3.285,1.875
		L526.313,116.418z"/>
	<path class="st2" d="M614.37,168.165l3.926,0.001c0.033-0.83,0.062-1.661,0.062-2.5c0-0.428-0.023-0.85-0.033-1.273l-3.893-0.002
		c0.01,0.428,0.062,0.846,0.062,1.275C614.497,166.51,614.407,167.33,614.37,168.165z"/>
	<path class="st2" d="M494.942,168.578l3.932,0.001c-0.047-0.972-0.146-1.929-0.146-2.912c0-0.292,0.041-0.573,0.047-0.864
		l-3.885-0.003c-0.004,0.29-0.02,0.576-0.02,0.867C494.868,166.643,494.897,167.611,494.942,168.578z"/>
	<path class="st2" d="M530.081,217.073c-1.125-0.579-2.211-1.216-3.291-1.866l-1.965,3.398c1.08,0.647,2.186,1.259,3.309,1.843
		L530.081,217.073z"/>
	<path class="st1" d="M498.874,168.579l3.861,0.002c-0.051-0.972-0.146-1.931-0.146-2.915c0-0.291,0.039-0.572,0.043-0.861
		l-3.857-0.002c-0.006,0.291-0.047,0.571-0.047,0.864C498.727,166.648,498.827,167.607,498.874,168.579z"/>
	<path class="st1" d="M528.239,119.757c1.068-0.664,2.148-1.314,3.268-1.904l-1.93-3.35c-1.119,0.592-2.191,1.252-3.266,1.914
		L528.239,119.757z"/>
	<path class="st1" d="M532.016,213.725c-1.127-0.576-2.217-1.203-3.295-1.855l-1.932,3.338c1.08,0.65,2.166,1.287,3.291,1.866
		L532.016,213.725z"/>
	<path class="st1" d="M610.51,168.163l3.859,0.001c0.037-0.835,0.127-1.655,0.127-2.498c0-0.432-0.055-0.848-0.062-1.275h-3.859
		c0.008,0.428,0.061,0.846,0.061,1.275C610.635,166.51,610.547,167.33,610.51,168.163z"/>
	<path class="st1" d="M584.168,216.58c1.111-0.604,2.168-1.289,3.238-1.961l-1.934-3.342c-1.062,0.676-2.127,1.352-3.234,1.951
		L584.168,216.58z"/>
	<path class="st1" d="M583.118,118.621c1.096,0.62,2.18,1.268,3.229,1.962l1.934-3.339c-1.057-0.69-2.133-1.341-3.232-1.964
		L583.118,118.621z"/>
	<path class="st0" d="M606.649,168.162l3.859,0.001c0.039-0.833,0.127-1.653,0.127-2.497c0-0.432-0.055-0.848-0.062-1.275
		l-3.861-0.002c0.012,0.428,0.062,0.846,0.062,1.277C606.774,166.508,606.69,167.33,606.649,168.162z"/>
	<path class="st0" d="M581.188,121.96c1.098,0.62,2.182,1.264,3.229,1.963l1.932-3.339c-1.051-0.694-2.135-1.343-3.229-1.962
		L581.188,121.96z"/>
	<path class="st0" d="M582.239,213.229c1.109-0.601,2.172-1.275,3.236-1.951l-1.926-3.34c-1.061,0.678-2.129,1.345-3.242,1.942
		L582.239,213.229z"/>
	<path class="st0" d="M502.735,168.581l3.859,0.003c-0.055-0.971-0.145-1.934-0.145-2.917c0-0.291,0.037-0.571,0.043-0.86
		l-3.861-0.002c-0.004,0.291-0.043,0.571-0.043,0.862C502.59,166.65,502.686,167.609,502.735,168.581z"/>
	<path class="st0" d="M530.163,123.099c1.07-0.667,2.154-1.311,3.275-1.896l-1.932-3.35c-1.119,0.59-2.199,1.241-3.27,1.904
		L530.163,123.099z"/>
	<path class="st0" d="M533.954,210.376c-1.131-0.571-2.229-1.192-3.303-1.849l-1.932,3.339c1.078,0.653,2.17,1.28,3.297,1.856
		L533.954,210.376z"/>
	<path class="st36" d="M535.889,207.025c-1.133-0.566-2.23-1.185-3.307-1.838l-1.932,3.342c1.072,0.654,2.172,1.275,3.303,1.85
		L535.889,207.025z"/>
	<path class="st36" d="M602.788,168.159l3.861,0.002c0.041-0.832,0.125-1.653,0.125-2.495c0-0.432-0.053-0.85-0.062-1.277
		l-3.861-0.003c0.014,0.431,0.064,0.849,0.064,1.281C602.915,166.508,602.831,167.33,602.788,168.159z"/>
	<path class="st36" d="M580.309,209.88c1.113-0.601,2.182-1.267,3.24-1.942l-1.93-3.345c-1.061,0.681-2.131,1.339-3.246,1.933
		L580.309,209.88z"/>
	<path class="st36" d="M579.256,125.303c1.1,0.618,2.188,1.259,3.229,1.962l1.932-3.342c-1.047-0.699-2.131-1.343-3.229-1.963
		L579.256,125.303z"/>
	<path class="st36" d="M532.094,126.443c1.062-0.669,2.152-1.305,3.273-1.887l-1.93-3.354c-1.121,0.585-2.205,1.229-3.275,1.896
		L532.094,126.443z"/>
	<path class="st36" d="M506.596,168.584l3.863,0.001c-0.062-0.971-0.146-1.935-0.146-2.919c0-0.289,0.037-0.568,0.043-0.857
		l-3.861-0.002c-0.006,0.289-0.043,0.568-0.043,0.859C506.452,166.65,506.542,167.613,506.596,168.584z"/>
	<path class="st35" d="M533.69,129.216l-0.676,1.17c1.803-1.209,3.723-2.249,5.707-3.175h-1.738l-0.08,0.005l-1.535-2.66
		c-1.121,0.582-2.211,1.218-3.273,1.887L533.69,129.216z"/>
	<path class="st35" d="M598.25,173.885l3.375-5.826l0.057,0.101h1.105c0.043-0.83,0.127-1.651,0.127-2.493
		c0-0.432-0.053-0.85-0.064-1.281h-1.088h-0.068l-3.238-5.617c0.367,2.25,0.607,4.543,0.607,6.897
		C599.063,168.48,598.776,171.225,598.25,173.885z"/>
	<path class="st35" d="M578.098,127.304l-0.055-0.099l-0.02,0.022l-3.49-0.001c3.266,1.526,6.33,3.415,9.076,5.684l-2.189-3.801
		l1.064-1.844c-1.041-0.703-2.129-1.344-3.23-1.962L578.098,127.304z"/>
	<path class="st35" d="M577.764,205.602h0.076l0.533,0.924c1.115-0.594,2.188-1.252,3.246-1.933l-0.57-0.987l3.482-6.021
		c-3.963,3.472-8.572,6.199-13.629,8.013L577.764,205.602z"/>
	<path class="st35" d="M510.356,164.811c-0.006,0.287-0.045,0.567-0.045,0.856c0,0.985,0.086,1.948,0.146,2.919l2.658,0.001
		l1.426,2.47c-0.225-1.77-0.381-3.56-0.381-5.391c0-0.984,0.08-1.95,0.146-2.918l-1.191,2.062H510.356z"/>
	<path class="st35" d="M532.583,205.188c1.074,0.653,2.174,1.271,3.307,1.838l0.836-1.45l5.547,0.005
		c-4.188-1.506-8.061-3.641-11.521-6.307l2.627,4.541L532.583,205.188z"/>
	<path class="st34" d="M526.725,141.267c2.5-3.06,5.469-5.715,8.783-7.886l1.348-2.331l0.025-0.042l0.018-0.029l2.885,0.001
		c4.295-2.089,9.025-3.403,14.035-3.762l-15.098-0.007c-1.984,0.926-3.904,1.965-5.707,3.175L526.725,141.267z"/>
	<path class="st34" d="M559.454,127.221c5.006,0.365,9.729,1.685,14.023,3.777l2.145,0.001h2.32h0.068l0.992,1.713l-0.004,0.006
		l0.004,0.005l0.002-0.005l1.594,2.755c7.516,5.977,12.723,14.691,14.158,24.64l3.521,6.11l-0.014,0.021l0.016,0.024l-3.758,6.498
		c-1.646,8.838-6.299,16.606-12.859,22.221l-2.246,3.88l-0.611,1.062l-1.059,1.832l-0.045,0.07l-7.717-0.002
		c-4.176,1.543-8.664,2.43-13.373,2.43c-4.723,0-9.225-0.892-13.404-2.441l-6.545-0.002h-0.074l-3.043-5.26
		c-8.322-6.228-14.059-15.705-15.268-26.576l-1.957-3.393l0.012-0.02l-0.014-0.023l1.152-2.008h0.006l0.66-1.145
		c0.234-4.059,1.09-7.944,2.484-11.569l-6.312,10.929c-0.068,0.968-0.148,1.934-0.148,2.918c0,1.831,0.156,3.621,0.381,5.391
		l8.754,15.181l-0.062,0.036l7.518,13c3.461,2.666,7.334,4.801,11.521,6.306l28.635,0.021c5.055-1.812,9.664-4.541,13.629-8.013
		l13.719-23.7c0.523-2.662,0.812-5.406,0.812-8.22c0-2.354-0.24-4.647-0.607-6.897l-6.893-11.945l0.061-0.027l-8.014-13.887
		c-2.746-2.269-5.812-4.157-9.076-5.684L559.454,127.221z"/>
	<path class="st33" d="M594.522,172.766l-12.857,22.221C588.229,189.373,592.875,181.604,594.522,172.766z"/>
	<path class="st33" d="M526.538,184.375l-0.182-0.314l0.031-0.014l-8.109-14.068c1.209,10.871,6.945,20.351,15.27,26.576
		l-7.031-12.164L526.538,184.375z"/>
	<path class="st33" d="M556.612,204.255c4.709,0,9.201-0.887,13.375-2.43l-26.777-0.013
		C547.391,203.366,551.893,204.255,556.612,204.255z"/>
	<path class="st33" d="M588.063,148.435l0.182,0.314l-0.029,0.015l6.541,11.348c-1.436-9.949-6.643-18.663-14.158-24.64
		l7.488,12.947L588.063,148.435z"/>
	<path class="st33" d="M539.784,130.981l15.811,0.008c0.342-0.014,0.678-0.05,1.021-0.05c0.348,0,0.688,0.036,1.035,0.051
		l15.83,0.008c-4.297-2.092-9.021-3.412-14.023-3.777l-5.637-0.002C548.809,127.577,544.079,128.891,539.784,130.981z"/>
	<path class="st33" d="M528.905,144.791l6.479-11.193l0.125-0.216c-3.312,2.171-6.283,4.826-8.783,7.886l-6.1,10.552
		c-1.395,3.625-2.25,7.511-2.484,11.569l6.451-11.148C525.715,149.565,527.18,147.075,528.905,144.791z"/>
	<path class="st32" d="M556.612,130.938c-0.344,0-0.678,0.037-1.018,0.05l2.055,0.001
		C557.303,130.974,556.961,130.938,556.612,130.938z"/>
	<path class="st32" d="M528.905,144.791c-1.725,2.285-3.189,4.774-4.312,7.45L528.905,144.791z"/>
	<polygon class="st30" points="533.014,130.386 533.69,129.216 532.094,126.443 530.163,123.099 528.239,119.757 526.313,116.418 
		524.35,113.016 522.424,109.677 520.497,106.33 518.569,102.983 516.639,99.635 514.711,96.292 513.151,93.586 513.071,93.586 
		511.784,93.586 504.866,93.581 498.495,93.577 492.534,93.574 486.883,93.571 481.442,93.569 476.161,93.566 472.026,93.564 
		451.448,129.169 453.625,132.941 456.292,137.565 459.045,142.335 461.907,147.295 464.94,152.554 468.198,158.197 
		471.754,164.364 471.999,164.786 475.594,164.789 479.456,164.79 483.317,164.793 487.178,164.795 491.04,164.797 494.889,164.8 
		498.772,164.803 502.633,164.805 506.495,164.807 510.356,164.811 513.118,164.811 514.311,162.749 520.625,151.819 
		526.725,141.267 	"/>
	<polygon class="st30" points="588.854,74.732 585.959,69.715 583.194,64.915 580.54,60.311 578.11,56.098 536.989,56.087 
		536.932,55.985 534.698,59.847 532.055,64.419 529.334,69.127 526.516,74.008 523.538,79.16 520.356,84.661 516.901,90.636 
		516.358,91.578 517.987,94.407 519.918,97.753 521.848,101.105 523.78,104.453 525.709,107.8 527.635,111.14 529.577,114.503 
		531.506,117.853 533.438,121.203 535.368,124.557 536.903,127.216 536.983,127.211 538.721,127.211 553.819,127.218 
		559.454,127.221 574.534,127.226 578.024,127.228 578.043,127.206 578.098,127.304 579.256,125.303 581.188,121.96 
		583.118,118.621 585.045,115.281 586.989,111.916 588.915,108.582 590.844,105.24 592.776,101.898 594.709,98.554 596.639,95.213 
		598.567,91.878 598.651,91.729 595.182,85.712 591.909,80.036 	"/>
	<polygon class="st30" points="535.889,207.025 533.954,210.376 532.016,213.725 530.081,217.073 528.133,220.448 526.204,223.787 
		524.272,227.13 522.336,230.477 520.403,233.828 518.469,237.171 516.542,240.512 516.147,241.195 518.932,246.029 
		522.161,251.631 525.184,256.877 528.043,261.84 530.801,266.623 533.434,271.193 536,275.645 536.69,276.84 543.987,276.846 
		569.131,276.859 577.807,276.861 578.659,275.393 581.28,270.852 583.967,266.197 586.752,261.373 589.67,256.322 592.776,250.951 
		596.135,245.132 598.387,241.236 597.659,239.975 595.737,236.639 593.809,233.296 591.879,229.95 589.95,226.607 588.026,223.264 
		586.1,219.927 584.168,216.58 582.239,213.229 580.309,209.88 578.374,206.525 577.84,205.602 577.764,205.602 570.903,205.598 
		542.27,205.58 536.725,205.575 	"/>
	<polygon class="st30" points="510.459,168.586 506.596,168.584 502.735,168.581 498.874,168.579 494.942,168.578 491.09,168.574 
		487.229,168.573 483.37,168.57 479.506,168.568 475.647,168.566 471.991,168.564 471.95,168.631 471.801,168.883 468.334,174.875 
		465.17,180.346 462.188,185.498 459.364,190.376 456.659,195.055 454.032,199.591 451.459,204.037 451.409,204.123 
		451.657,204.552 461.612,221.848 461.553,221.88 470.057,236.591 471.676,239.387 471.754,239.387 472.459,239.387 
		477.661,239.391 482.999,239.393 488.6,239.396 494.428,239.4 500.594,239.402 507.215,239.407 512.793,239.41 513.241,238.637 
		515.168,235.305 517.098,231.962 519.036,228.621 520.965,225.277 522.897,221.938 524.825,218.605 526.79,215.207 
		528.721,211.869 530.651,208.529 532.583,205.188 533.377,203.814 530.75,199.273 523.233,186.273 523.297,186.236 
		514.543,171.057 513.118,168.587 	"/>
	<polygon class="st30" points="526.409,184.039 517.368,168.352 516.334,166.564 516.323,166.585 518.278,169.979 526.387,184.046 	
		"/>
	<polygon class="st30" points="535.508,133.381 535.383,133.598 536.881,131.008 536.854,131.05 	"/>
	<polygon class="st30" points="581.665,194.986 594.522,172.766 598.282,166.268 598.268,166.243 579.418,198.866 	"/>
	<polygon class="st30" points="579.002,132.723 578.999,132.718 560.471,164.534 	"/>
	
		<rect x="588.124" y="148.421" transform="matrix(0.8275 -0.5615 0.5615 0.8275 18.0291 355.8787)" class="st30" width="0.033" height="0.359"/>
	<polygon class="st30" points="536.588,201.8 526.538,184.375 526.516,184.389 533.547,196.552 536.588,201.812 536.663,201.812 
		543.209,201.814 569.987,201.828 577.704,201.83 575.547,201.823 	"/>
	<path class="st10" d="M555.594,130.988l-15.811-0.008l-2.885-0.001l-0.02,0.029l-1.5,2.589l-6.479,11.193l-4.312,7.45
		l-6.451,11.148l-0.664,1.145H554h2.088l1.137-1.95l18.395-31.585h0.002l-2.146-0.001l-15.828-0.008L555.594,130.988z
		 M563.18,140.909l-9.812,0.005l-10.02,17.574h-5.906l10.184-17.579l-10.145,0.005l2.357-4.146h25.656L563.18,140.909z"/>
	<polygon class="st10" points="526.387,184.046 526.356,184.059 526.538,184.375 536.588,201.8 575.547,201.823 557.229,170.123 
		556.209,168.352 553.874,168.352 517.368,168.352 526.409,184.039 	"/>
	<polygon class="st10" points="559.407,166.359 560.559,168.352 578.805,199.925 579.418,198.866 598.268,166.243 598.28,166.223 
		594.756,160.112 588.215,148.764 588.036,148.453 588.063,148.435 588.086,148.42 580.598,135.473 579.006,132.718 
		579.002,132.723 560.471,164.534 	"/>
	<polygon class="st30" points="557.229,162.584 556.092,164.534 554.004,164.534 517.479,164.534 517.475,164.534 516.321,166.542 
		516.334,166.564 517.368,168.352 553.874,168.352 556.209,168.352 557.229,170.123 575.547,201.823 577.704,201.83 
		577.747,201.757 578.805,199.925 560.559,168.352 559.407,166.359 560.471,164.534 578.999,132.718 579.002,132.712 
		578.01,130.999 577.942,130.999 575.622,130.999 575.62,130.999 	"/>
	<polygon class="st30" points="537.479,140.915 547.624,140.909 537.44,158.488 543.348,158.488 553.366,140.915 563.18,140.909 
		565.495,136.768 539.838,136.768 	"/>
	<path class="st8" d="M424.95,155.813h-3.104v16.051h3.195v-7.06c0-0.894-0.051-2.915-0.051-3.513
		c0.213,0.417,0.742,1.217,1.135,1.815l5.943,8.756h2.887v-16.051h-3.189v6.785c0,0.894,0.047,2.917,0.047,3.506
		c-0.201-0.402-0.742-1.209-1.139-1.81L424.95,155.813z"/>
	<path class="st8" d="M445.641,158.751c1.748,0,2.488,0.894,3.094,2.081l3.072-1.253c-1.061-2.479-2.818-4.015-6.127-4.015
		c-4.229,0-7.182,3.395-7.182,8.276c0,5.07,2.836,8.279,7.068,8.279c3.74,0,6.492-2.34,6.492-6.469v-2.109h-5.799v3h2.564
		c-0.188,1.407-0.951,2.438-3.168,2.438c-2.434,0-3.842-2.183-3.842-5.139C441.817,160.859,443.215,158.751,445.641,158.751z"/>
	<path class="st12" d="M14.722,164.83c0,2.564-1.234,4.148-3.241,4.148c-2.002,0-3.214-1.631-3.214-4.197v-8.968H5.113v9.017
		c0,4.673,2.566,7.29,6.368,7.29c4.009,0,6.395-2.683,6.395-7.338v-8.968h-3.154V164.83z"/>
	<path class="st12" d="M34.795,160.9c0-3.411-2.451-5.084-5.424-5.084h-7.333v16.047h3.148v-5.778h3.17l2.813,5.778h3.625
		l-3.021-6.23C33.78,164.827,34.795,163.314,34.795,160.9z M29.306,163.061h-4.119v-4.13h4.119c1.398,0,2.249,0.59,2.249,2.043
		C31.554,162.37,30.767,163.061,29.306,163.061z"/>
	<path class="st12" d="M48.88,163.176c1.034-0.645,1.664-1.744,1.664-3.121c0-2.759-1.933-4.243-4.993-4.243h-7.226v16.051h7.16
		c3.375,0,5.603-1.811,5.603-5.18C51.087,164.915,50.141,163.747,48.88,163.176z M41.404,158.769h4.009
		c1.379,0,1.939,0.53,1.939,1.539c0,0.895-0.472,1.511-1.777,1.511h-4.171V158.769z M45.595,168.812h-4.19v-4.145h4.19
		c1.53,0,2.254,0.684,2.254,2.062C47.849,167.989,47.125,168.812,45.595,168.812z"/>
	<path class="st12" d="M58.917,155.813l-6.039,16.051h3.378l1.242-3.573h5.759l1.239,3.573h3.466l-5.987-16.051H58.917z
		 M58.58,165.236l1.017-2.91c0.307-0.943,0.625-1.909,0.784-2.495c0.156,0.586,0.475,1.552,0.79,2.495l1.006,2.91H58.58z"/>
	<path class="st12" d="M80.77,162.598c0,0.894,0.046,2.917,0.046,3.507c-0.208-0.403-0.724-1.209-1.103-1.811l-5.583-8.482h-3.017
		v16.051h3.104v-7.06c0-0.894-0.044-2.915-0.044-3.513c0.2,0.417,0.724,1.217,1.103,1.815l5.783,8.756h2.811v-16.051h-3.1V162.598z"
		/>
	<rect x="94.467" y="153.521" class="st12" width="2.817" height="22.583"/>
	<path class="st12" d="M114.635,166.542h2.495c-0.181,1.407-0.918,2.438-3.087,2.438c-2.362,0-3.727-2.184-3.727-5.14
		c0-2.981,1.347-5.089,3.71-5.089c1.706,0,2.427,0.894,3.017,2.081l2.989-1.253c-1.031-2.479-2.745-4.015-5.961-4.015
		c-4.119,0-7.001,3.395-7.001,8.276c0,5.07,2.772,8.279,6.888,8.279c3.642,0,6.321-2.339,6.321-6.47v-2.108h-5.643v3H114.635z"/>
	<path class="st12" d="M136.595,160.9c0-3.411-2.449-5.084-5.424-5.084h-7.333v16.047h3.147v-5.778h3.176l2.814,5.778h3.62
		l-3.019-6.23C135.58,164.827,136.595,163.314,136.595,160.9z M131.104,163.061h-4.119v-4.13h4.119c1.393,0,2.254,0.59,2.254,2.043
		C133.359,162.37,132.569,163.061,131.104,163.061z"/>
	<path class="st12" d="M144.723,155.813l-6.038,16.051h3.378l1.234-3.573h5.764l1.237,3.573h3.464l-5.981-16.051H144.723z
		 M144.38,165.236l1.012-2.91c0.318-0.943,0.628-1.909,0.787-2.495c0.16,0.586,0.475,1.552,0.788,2.495l1.015,2.91H144.38z"/>
	<path class="st12" d="M163.798,155.816h-6.889v16.047h3.154v-5.688h3.466c3.266,0,5.693-1.557,5.693-5.276
		C169.223,157.489,166.771,155.816,163.798,155.816z M163.732,163.061h-3.669v-4.127h3.625c1.396,0,2.293,0.642,2.293,2.04
		C165.981,162.37,165.194,163.061,163.732,163.061z"/>
	<polygon class="st12" points="182.051,161.959 175.59,161.959 175.59,155.813 172.442,155.813 172.442,171.864 175.59,171.864 
		175.59,165.121 182.051,165.121 182.051,171.864 185.199,171.864 185.199,155.813 182.051,155.813 	"/>
	<rect x="189.697" y="155.813" class="st12" width="3.153" height="16.051"/>
	<path class="st12" d="M203.474,158.745c1.415,0,2.32,0.65,2.88,1.741l2.923-1.371c-0.988-2.086-2.792-3.554-5.762-3.554
		c-4.116,0-7.001,3.395-7.001,8.281c0,5.065,2.77,8.277,6.889,8.277c2.857,0,4.75-1.354,5.831-3.628l-2.654-1.601
		c-0.834,1.416-1.667,2.041-3.088,2.041c-2.358,0-3.729-2.201-3.729-5.09C199.761,160.859,201.107,158.745,203.474,158.745z"/>
	<path class="st8" d="M226.458,155.816h-5.06v16.047h4.832c4.157,0,8.273-2.377,8.273-8.021
		C234.503,157.971,231.078,155.816,226.458,155.816z M226.229,168.749h-1.596v-9.817h1.711c3.417,0,4.835,1.629,4.835,4.911
		C231.18,166.771,229.625,168.749,226.229,168.749z"/>
	<polygon class="st8" points="241.202,164.852 245.854,164.852 245.854,161.731 241.202,161.731 241.202,158.959 249.207,158.959 
		249.207,155.813 237.969,155.813 237.969,171.864 249.549,171.864 249.549,168.725 241.202,168.725 	"/>
	<path class="st8" d="M259.352,162.049c-2.562-0.593-3.253-0.916-3.253-1.92c0-0.713,0.57-1.453,2.303-1.453
		c1.483,0,2.639,0.604,3.682,1.651l2.333-2.246c-1.533-1.579-3.376-2.518-5.894-2.518c-3.191,0-5.78,1.786-5.78,4.7
		c0,3.165,2.078,4.104,5.067,4.797c3.044,0.683,3.598,1.138,3.598,2.17c0,1.219-0.899,1.748-2.816,1.748
		c-1.55,0-3.005-0.529-4.138-1.834l-2.336,2.057c1.217,1.796,3.586,2.918,6.284,2.918c4.421,0,6.362-2.068,6.362-5.112
		C264.764,163.522,261.918,162.65,259.352,162.049z"/>
	<rect x="268.646" y="155.813" class="st8" width="3.237" height="16.051"/>
	<path class="st8" d="M283.396,166.542h2.563c-0.184,1.407-0.946,2.438-3.167,2.438c-2.43,0-3.834-2.184-3.834-5.14
		c0-2.981,1.394-5.089,3.818-5.089c1.748,0,2.491,0.894,3.093,2.081l3.076-1.253c-1.064-2.479-2.824-4.015-6.132-4.015
		c-4.231,0-7.184,3.395-7.184,8.276c0,5.07,2.84,8.279,7.074,8.279c3.741,0,6.493-2.339,6.493-6.47v-2.108h-5.802v3H283.396z"/>
	<path class="st8" d="M302.772,162.598c0,0.894,0.038,2.917,0.038,3.507c-0.208-0.403-0.734-1.209-1.135-1.811l-5.731-8.482h-3.094
		v16.051h3.187v-7.06c0-0.894-0.049-2.915-0.049-3.513c0.216,0.417,0.745,1.217,1.135,1.815l5.946,8.756h2.89v-16.051h-3.187
		V162.598L302.772,162.598z"/>
	<rect x="316.867" y="153.521" class="st8" width="2.888" height="22.583"/>
	<path class="st8" d="M337.758,155.816h-7.077v16.047h3.239v-5.688h3.562c3.353,0,5.845-1.557,5.845-5.276
		C343.325,157.489,340.808,155.816,337.758,155.816z M337.688,163.061h-3.768v-4.127h3.724c1.437,0,2.356,0.642,2.356,2.04
		C340,162.37,339.185,163.061,337.688,163.061z"/>
	<polygon class="st8" points="349.874,155.813 346.638,155.813 346.638,171.864 357.991,171.864 357.991,168.695 349.874,168.695 	
		"/>
	<path class="st8" d="M366.239,155.813l-6.199,16.051h3.474l1.264-3.573h5.925l1.271,3.573h3.562l-6.154-16.051H366.239z
		 M365.892,165.236l1.045-2.91c0.317-0.943,0.647-1.909,0.806-2.495c0.162,0.586,0.486,1.552,0.812,2.495l1.032,2.91H365.892z"/>
	<path class="st8" d="M391.016,155.813h-2.333v6.785c0,0.894,0.044,2.917,0.044,3.507c-0.209-0.403-0.74-1.209-1.13-1.811
		l-5.742-8.482h-3.088v16.051h3.192v-7.06c0-0.894-0.051-2.915-0.051-3.513c0.202,0.417,0.736,1.217,1.131,1.815l5.943,8.756h2.887
		v-14.774v-1.277L391.016,155.813L391.016,155.813z"/>
	<path class="st8" d="M399.362,155.813h-3.104v16.051h3.195v-7.06c0-0.894-0.049-2.915-0.049-3.513
		c0.213,0.417,0.736,1.217,1.135,1.815l5.938,8.756h2.898v-16.051h-3.191v6.785c0,0.894,0.043,2.917,0.043,3.506
		c-0.211-0.402-0.738-1.209-1.141-1.81L399.362,155.813z"/>
	<rect x="414" y="155.813" class="st8" width="3.23" height="16.051"/>
</g>
</svg>
