<?xml version="1.0" encoding="utf-8"?>
<!-- Generator: Adobe Illustrator 16.0.0, SVG Export Plug-In . SVG Version: 6.00 Build 0)  -->
<!DOCTYPE svg PUBLIC "-//W3C//DTD SVG 1.1//EN" "http://www.w3.org/Graphics/SVG/1.1/DTD/svg11.dtd">
<svg version="1.1" id="Layer_1" xmlns="http://www.w3.org/2000/svg" xmlns:xlink="http://www.w3.org/1999/xlink" x="0px" y="0px"
	 width="30.237px" height="27.838px" viewBox="0 0 30.237 27.838" style="enable-background:new 0 0 30.237 27.838;"
	 xml:space="preserve">
<style type="text/css">
<![CDATA[
	.st0{fill:#B1B1B3;}
]]>
</style>
<g>
	<path class="st0" d="M30.237,2.66c0,1.104-0.896,2-2,2H2c-1.104,0-2-0.896-2-2V2c0-1.104,0.896-2,2-2h26.237c1.104,0,2,0.896,2,2
		V2.66z"/>
	<path class="st0" d="M30.237,14.33c0,1.104-0.896,2-2,2H2c-1.104,0-2-0.896-2-2v-0.661c0-1.104,0.896-2,2-2h26.237
		c1.104,0,2,0.896,2,2V14.33z"/>
	<path class="st0" d="M30.237,25.838c0,1.104-0.896,2-2,2H2c-1.104,0-2-0.896-2-2v-0.66c0-1.105,0.896-2,2-2h26.237
		c1.104,0,2,0.895,2,2V25.838z"/>
</g>
</svg>
