<?xml version="1.0" encoding="utf-8"?>
<!-- Generator: Adobe Illustrator 16.0.0, SVG Export Plug-In . SVG Version: 6.00 Build 0)  -->
<!DOCTYPE svg PUBLIC "-//W3C//DTD SVG 1.1//EN" "http://www.w3.org/Graphics/SVG/1.1/DTD/svg11.dtd">
<svg version="1.1" id="Layer_1" xmlns="http://www.w3.org/2000/svg" xmlns:xlink="http://www.w3.org/1999/xlink" x="0px" y="0px"
	 width="193.136px" height="51.944px" viewBox="0 0 193.136 51.944" enable-background="new 0 0 193.136 51.944"
	 xml:space="preserve">
<g>
	<path fill="#CCCCCC" d="M12.175,38.141c-3.604,0-6.061-1.529-8.081-3.822v17.465L0,48.078v-39.2h4.095v3.494
		c2.02-2.184,4.75-4.095,8.626-4.095c5.732,0,10.264,4.368,10.264,14.468C22.985,32.9,18.181,38.141,12.175,38.141z M11.684,11.826
		c-3.057,0-5.569,1.638-7.589,4.149v14.304c1.583,2.402,4.368,4.313,7.753,4.313c4.75,0,7.097-4.095,7.097-11.792
		C18.945,15.593,16.215,11.826,11.684,11.826z"/>
	<path fill="#CCCCCC" d="M48.314,37.541v-3.494c-1.638,2.402-4.313,4.095-7.917,4.095c-6.06,0-10.045-3.549-10.045-11.793V8.877
		h4.095v16.761c0,6.169,2.184,8.954,6.77,8.954c3.985,0,7.097-2.675,7.097-8.954V8.877h4.095v28.663H48.314z"/>
	<path fill="#CCCCCC" d="M86.745,38.141c-3.604,0-6.061-1.529-8.081-3.822v3.221h-4.095V0.033l4.095,3.707v8.631
		c2.02-2.184,4.75-4.095,8.626-4.095c5.732,0,10.264,4.368,10.264,14.468C97.555,32.9,92.75,38.141,86.745,38.141z M86.253,11.826
		c-3.057,0-5.569,1.638-7.589,4.149v14.304c1.583,2.402,4.368,4.313,7.753,4.313c4.75,0,7.097-4.095,7.097-11.792
		C93.514,15.593,90.785,11.826,86.253,11.826z"/>
	<path fill="#CCCCCC" d="M119.061,37.541V8.877l4.094,2.4v26.263H119.061z"/>
	<path fill="#CCCCCC" d="M153.506,38.141c-3.931,0-7.37-1.474-10.1-3.658l2.402-3.002c2.293,2.02,4.968,3.167,7.807,3.167
		c3.931,0,5.787-1.638,5.787-4.422c0-2.348-1.692-3.658-6.77-5.842c-5.732-2.457-8.135-4.204-8.135-8.79
		c0-4.368,3.767-7.316,8.954-7.316c3.931,0,6.988,1.256,9.172,3.058l-2.293,3.003c-2.238-1.747-4.095-2.566-7.152-2.566
		c-3.002,0-4.75,1.474-4.75,3.549c0,2.402,1.474,3.385,6.333,5.569c5.405,2.457,8.572,4.04,8.572,9.172
		C163.334,35.684,158.475,38.141,153.506,38.141z"/>
	<g>
		<path fill="#CCCCCC" d="M183.071,8.277c-3.604,0-5.936,1.693-7.936,4.095V3.74l-4-3.707v37.911h4V20.78
			c0-6.279,3.179-8.954,7.164-8.954c4.586,0,6.836,2.785,6.836,8.954v17.165h-0.073l4.073,3.312V20.07
			C193.136,11.826,189.132,8.277,183.071,8.277z"/>
	</g>
</g>
<g>
	<polygon fill="#F0F5DC" points="131.137,38.777 131.382,38.917 135.266,41.136 135.266,40.986 135.249,36.364 135.249,36.361 
		134.498,35.931 133.103,35.132 133.065,35.11 133.066,35.106 133.068,35.104 131.475,34.194 131.136,34 131.136,34.001 
		131.137,38.518 	"/>
</g>
<g>
	<polygon fill="#F0F5DC" points="61.631,38.777 61.876,38.917 65.761,41.136 65.761,40.986 65.743,36.364 65.743,36.361 
		64.992,35.931 63.598,35.132 63.56,35.11 63.561,35.106 63.562,35.104 61.969,34.194 61.63,34 61.63,34.001 61.631,38.518 	"/>
</g>
<g>
	<polygon fill="#F0F5DC" points="119.072,4.777 119.317,4.917 123.201,7.136 123.201,6.986 123.184,2.364 123.184,2.361 
		122.433,1.931 121.038,1.132 121,1.11 121.001,1.106 121.003,1.104 119.41,0.194 119.071,0 119.071,0.001 119.072,4.518 	"/>
</g>
<g>
	<polygon fill="#CCCCCC" points="105.136,1.476 105.136,37.944 105.375,37.944 109.136,37.944 109.136,3.761 105.317,1.579 	"/>
</g>
</svg>
