<?xml version="1.0" encoding="utf-8"?>
<!-- Generator: Adobe Illustrator 16.0.0, SVG Export Plug-In . SVG Version: 6.00 Build 0)  -->
<!DOCTYPE svg PUBLIC "-//W3C//DTD SVG 1.1//EN" "http://www.w3.org/Graphics/SVG/1.1/DTD/svg11.dtd">
<svg version="1.1" id="Layer_1" xmlns="http://www.w3.org/2000/svg" xmlns:xlink="http://www.w3.org/1999/xlink" x="0px" y="0px"
	 width="28px" height="28px" viewBox="242 0 28 28" enable-background="new 242 0 28 28" xml:space="preserve">
<rect x="242" fill="#FFFFFF" width="28" height="28"/>
<g>
	<path d="M261.402,13.57c0.133,1.588-0.439,3.145-1.571,4.271c-1.022,1.022-2.384,1.585-3.832,1.585s-2.81-0.563-3.834-1.585
		c-1.023-1.021-1.588-2.379-1.588-3.825c0-1.444,0.564-2.803,1.588-3.824c1.017-1.014,2.375-1.572,3.827-1.572
		c1.166,0,2.308,0.373,3.233,1.054l-0.808,0.767l4.062,1.143L261.512,7.5l-0.97,0.923c-1.309-1.074-2.874-1.641-4.537-1.641
		c-1.91,0-3.724,0.761-5.109,2.143c-1.364,1.359-2.115,3.167-2.115,5.092c0,1.923,0.751,3.731,2.115,5.09
		c1.363,1.361,3.175,2.11,5.103,2.11c1.929,0,3.74-0.75,5.101-2.11c1.365-1.357,2.117-3.212,2.107-5.131l-1.808-0.452L261.402,13.57
		z"/>
</g>
</svg>
