<?xml version="1.0" encoding="utf-8"?>
<!-- Generator: Adobe Illustrator 16.0.0, SVG Export Plug-In . SVG Version: 6.00 Build 0)  -->
<!DOCTYPE svg PUBLIC "-//W3C//DTD SVG 1.1//EN" "http://www.w3.org/Graphics/SVG/1.1/DTD/svg11.dtd">
<svg version="1.1" id="Layer_1" xmlns="http://www.w3.org/2000/svg" xmlns:xlink="http://www.w3.org/1999/xlink" x="0px" y="0px"
	 width="512px" height="512px" viewBox="0 0 512 512" enable-background="new 0 0 512 512" xml:space="preserve">
<circle opacity="0.3" fill="#FFFFFF" stroke="#000000" stroke-width="2" stroke-miterlimit="10" enable-background="new    " cx="256" cy="256.002" r="248.091"/>
<g>
	<circle fill="#FFFFFF" cx="256" cy="256.002" r="248.091"/>
	<path fill="#EEF4DE" d="M389.73,389.861c-73.869,73.729-193.597,73.729-267.487,0c-73.868-73.684-73.868-193.134,0-266.84
		c70.07-69.872,179.056-75.684,255.296-11.1l23.628-22.465l0.019,0.08l22.887,96.646l-96.178-27.062l19.986-19.003
		c-57.801-45.378-143.143-42.15-196.958,11.513c-58.029,57.888-58.05,151.729,0,209.644c58.028,57.936,152.125,57.936,210.106,0
		c36.552-36.437,50.105-87.053,40.615-134.042l42.604,10.668C449.582,292.139,431.479,348.297,389.73,389.861z"/>
	<path fill="#FFFFFF" d="M255.995,436.157c-48.114,0-93.357-18.704-127.395-52.667c-34.018-33.934-52.754-79.045-52.758-127.027
		c-0.004-47.993,18.732-93.121,52.758-127.071c34.624-34.526,79.927-53.542,127.562-53.542c42.44,0,82.4,14.848,115.559,42.938
		l6.164,5.222l18.132-17.239l15.773,66.606l-66.229-18.635l16.065-15.275l-8.188-6.428c-27.525-21.61-62.202-33.511-97.643-33.511
		c-42.153,0-81.655,16.24-111.228,45.729c-29.775,29.704-46.174,69.192-46.174,111.192c-0.001,42,16.397,81.49,46.173,111.196
		c29.762,29.715,69.335,46.081,111.427,46.081c42.093,0,81.655-16.367,111.397-46.086c34.093-33.985,50.492-81.14,45.235-128.381
		l23.174,5.803c3.283,51.646-15.625,101.789-52.419,138.422C349.346,417.454,304.108,436.157,255.995,436.157z"/>
	<path d="M255.995,433.157c-47.314,0-91.805-18.393-125.276-51.791C97.269,348,78.846,303.642,78.842,256.463
		c-0.004-47.19,18.42-91.564,51.877-124.948c34.057-33.961,78.607-52.665,125.443-52.665c41.72,0,81.009,14.602,113.62,42.227
		l8.219,6.962l16.301-15.498l13.396,56.566l-56.247-15.826l14.759-14.033l-10.918-8.571c-28.051-22.022-63.386-34.151-99.496-34.151
		c-42.953,0-83.207,16.551-113.346,46.605c-30.344,30.271-47.056,70.514-47.056,113.316c-0.001,42.802,16.71,83.046,47.054,113.32
		c30.329,30.28,70.654,46.957,113.546,46.957c42.894,0,83.208-16.679,113.517-46.964c33.68-33.572,50.498-79.486,46.516-126.559
		l16.904,4.233c2.555,49.917-16.205,98.616-51.666,133.921C347.796,414.762,303.31,433.157,255.995,433.157z"/>
</g>
</svg>
