<?xml version="1.0" encoding="utf-8"?>
<!-- Generator: Adobe Illustrator 16.0.0, SVG Export Plug-In . SVG Version: 6.00 Build 0)  -->
<!DOCTYPE svg PUBLIC "-//W3C//DTD SVG 1.1//EN" "http://www.w3.org/Graphics/SVG/1.1/DTD/svg11.dtd">
<svg version="1.1" id="Layer_1" xmlns="http://www.w3.org/2000/svg" xmlns:xlink="http://www.w3.org/1999/xlink" x="0px" y="0px"
	 width="512px" height="512px" viewBox="0 0 512 512" enable-background="new 0 0 512 512" xml:space="preserve">
<g>
	<path fill="#FFFFFF" d="M224,160c-35.345,0-64,28.656-64,64s28.655,64,64,64c11.843,0,22.805-3.438,32.319-9.047
		c9.361-5.53,17.104-13.273,22.634-22.634C284.562,246.805,288,235.843,288,224C288,188.656,259.344,160,224,160z"/>
	<path fill="#FFFFFF" d="M256,0C114.609,0,0,114.609,0,256c0,141.391,114.609,256,256,256c141.391,0,256-114.609,256-256
		C512,114.609,397.391,0,256,0z M379.311,379.312c-6.249,6.252-16.374,6.252-22.624,0l-77.124-77.125
		C263.875,313.359,244.727,320,224,320c-53.017,0-96-42.984-96-96c0-53.032,42.983-96,96-96c53.016,0,96,42.968,96,96
		c0,20.727-6.64,39.875-17.812,55.562l77.123,77.127C385.562,362.938,385.562,373.062,379.311,379.312z"/>
</g>
</svg>
