<?xml version="1.0" encoding="utf-8"?>
<!-- Generator: Adobe Illustrator 16.0.0, SVG Export Plug-In . SVG Version: 6.00 Build 0)  -->
<!DOCTYPE svg PUBLIC "-//W3C//DTD SVG 1.1//EN" "http://www.w3.org/Graphics/SVG/1.1/DTD/svg11.dtd">
<svg version="1.1" xmlns="http://www.w3.org/2000/svg" xmlns:xlink="http://www.w3.org/1999/xlink" x="0px" y="0px"
	 width="80.809px" height="70.844px" viewBox="0 0 80.809 70.844" enable-background="new 0 0 80.809 70.844" xml:space="preserve">
<g id="Layer_2">
</g>
<g id="Layer_2_copy">
</g>
<g id="Layer_1">
	<polygon fill="#FFFFFF" points="5.238,40.256 37.738,40.256 52.738,66.756 20.571,68.256 	"/>
	<g>
		<g>
			<g>
				<path fill="none" d="M38.579,44.643l-1.07-1.898c-0.282-0.498-0.982-0.906-1.561-0.906h-26.6c-0.578,0-0.818,0.408-0.537,0.906
					l1.071,1.898c0.282,0.5,0.983,0.906,1.56,0.906h26.6C38.622,45.549,38.861,45.143,38.579,44.643z M11.372,44.528
					c-0.265,0-0.679-0.24-0.806-0.466l-0.854-1.514l26.25-0.002c0.264,0,0.68,0.241,0.808,0.468l0.853,1.514H11.372z"/>
				<path fill="none" d="M47.904,61.424c-0.281-0.5-0.982-0.908-1.561-0.908H19.758c-0.578,0-0.818,0.408-0.537,0.908l1.07,1.896
					c0.282,0.5,0.984,0.908,1.561,0.908h26.584c0.58,0,0.82-0.408,0.537-0.908L47.904,61.424z M21.818,63.272
					c-0.264,0-0.679-0.242-0.808-0.47l-0.854-1.512l26.22-0.003c0.265,0,0.679,0.241,0.808,0.468l0.854,1.517H21.818z"/>
				<path fill="none" d="M44.107,54.203l-1.07-1.896c-0.281-0.502-0.98-0.908-1.561-0.908H14.875c-0.578,0-0.818,0.408-0.537,0.908
					l1.071,1.896c0.282,0.5,0.983,0.908,1.561,0.908h26.602C44.15,55.111,44.39,54.703,44.107,54.203z M16.918,54.124
					c-0.264,0-0.678-0.24-0.806-0.468l-0.855-1.514l26.235-0.002c0.264,0,0.68,0.238,0.806,0.466l0.856,1.518H16.918z"/>
			</g>
			<path fill="#EEF4DE" d="M58.148,0.019h0.002L19.428,0l-0.021,0.029L0,33.554h38.617L58.148,0.019z M25.876,27.509H19.97
				L30.154,9.93L20.01,9.935l2.357-4.146h25.656L45.708,9.93l-9.812,0.005L25.876,27.509z"/>
			<polygon fill="#EEF4DE" points="61.559,1.782 61.535,1.739 61.531,1.744 41.935,35.38 61.333,68.945 80.796,35.264 
				80.808,35.244 			"/>
		</g>
	</g>
</g>
<g id="Layer_4" display="none">
	<path display="inline" d="M9.883,45.771l-1.071-1.898c-0.282-0.498-0.042-0.906,0.537-0.906h26.6c0.578,0,1.278,0.408,1.561,0.906
		l1.07,1.898c0.282,0.5,0.043,0.906-0.537,0.906h-26.6C10.865,46.677,10.164,46.271,9.883,45.771z"/>
	<path display="inline" d="M47.904,62.552l1.07,1.896c0.283,0.5,0.043,0.908-0.537,0.908H21.853c-0.577,0-1.279-0.408-1.561-0.908
		l-1.07-1.896c-0.281-0.5-0.042-0.908,0.537-0.908h26.585C46.922,61.644,47.623,62.052,47.904,62.552z"/>
	<path display="inline" d="M43.037,53.435l1.07,1.896c0.283,0.5,0.043,0.908-0.535,0.908H16.97c-0.577,0-1.279-0.408-1.561-0.908
		l-1.071-1.896c-0.281-0.5-0.042-0.908,0.537-0.908h26.601C42.056,52.526,42.756,52.933,43.037,53.435z"/>
</g>
<g id="Layer_5">
	<g>
		<path fill="none" d="M38.212,45.599c-0.065,0.014-0.12,0.038-0.197,0.038h-26.6c-0.577,0-1.278-0.406-1.56-0.906l-1.071-1.898
			c-0.038-0.066-0.042-0.125-0.062-0.188c-0.419,0.09-0.583,0.438-0.339,0.869l1.071,1.897c0.282,0.501,0.983,0.907,1.56,0.907h26.6
			C38.115,46.318,38.339,46.006,38.212,45.599z"/>
		<path fill="none" d="M21.824,64.316c-0.577,0-1.279-0.408-1.561-0.908l-1.07-1.896c-0.038-0.066-0.042-0.125-0.062-0.188
			c-0.419,0.09-0.583,0.438-0.339,0.869l1.07,1.897c0.282,0.5,0.984,0.908,1.561,0.908h26.561c0.5,0,0.725-0.312,0.601-0.716
			c-0.06,0.011-0.107,0.034-0.177,0.034H21.824z"/>
		<path fill="none" d="M43.718,55.165c-0.059,0.011-0.106,0.034-0.175,0.034H16.942c-0.577,0-1.279-0.408-1.561-0.908l-1.071-1.896
			c-0.038-0.067-0.043-0.126-0.062-0.189c-0.419,0.091-0.583,0.438-0.339,0.87l1.071,1.897c0.282,0.5,0.983,0.907,1.561,0.907
			h26.578C43.617,55.88,43.842,55.57,43.718,55.165z"/>
		<g>
			<path fill="none" d="M8.919,42.606h0.825l0.822,1.456c0.127,0.226,0.542,0.466,0.806,0.466h26.25l-0.641-1.137
				c0.03,0.042,0.073,0.079,0.098,0.122l1.07,1.897c0.022,0.039,0.027,0.074,0.037,0.11c0.461-0.069,0.647-0.428,0.393-0.879
				l-1.07-1.898c-0.282-0.498-0.982-0.906-1.561-0.906h-26.6c-0.533,0-0.758,0.352-0.573,0.796
				C8.82,42.622,8.862,42.606,8.919,42.606z"/>
			<path fill="none" d="M14.446,52.167h0.825l0.841,1.489c0.128,0.228,0.542,0.468,0.806,0.468h26.236l-0.645-1.142
				c0.022,0.032,0.056,0.06,0.074,0.093l1.07,1.897c0.022,0.041,0.028,0.078,0.038,0.115c0.479-0.06,0.675-0.426,0.415-0.885
				l-1.07-1.896c-0.281-0.502-0.98-0.908-1.561-0.908H14.875c-0.532,0-0.757,0.352-0.573,0.796
				C14.347,52.183,14.389,52.167,14.446,52.167z"/>
			<path fill="none" d="M47.904,61.424c-0.281-0.5-0.982-0.908-1.561-0.908H19.758c-0.533,0-0.758,0.352-0.573,0.797
				c0.045-0.012,0.087-0.027,0.144-0.027h26.561c0.006,0,0.013,0.003,0.019,0.003l-25.752,0.003l0.854,1.512
				c0.128,0.228,0.543,0.47,0.808,0.47h26.22l-0.66-1.172c0.021,0.031,0.055,0.06,0.073,0.092l1.07,1.897
				c0.022,0.041,0.028,0.077,0.038,0.115c0.479-0.061,0.675-0.426,0.415-0.885L47.904,61.424z"/>
			<path opacity="0.13" d="M39.677,35.667H0.835l-0.939,1.706l19.327,33.471h38.853l1.036-1.712L39.677,35.667z M9.348,41.838h26.6
				c0.578,0,1.278,0.408,1.561,0.906l1.07,1.898c0.254,0.451,0.068,0.81-0.393,0.879c-0.009-0.036-0.015-0.071-0.037-0.11
				l-1.07-1.897c-0.024-0.043-0.067-0.08-0.098-0.122l0.641,1.137h-26.25c-0.265,0-0.679-0.24-0.806-0.466l-0.822-1.456H8.919
				c-0.057,0-0.099,0.016-0.144,0.027C8.59,42.189,8.816,41.838,9.348,41.838z M14.875,51.398h26.601
				c0.58,0,1.279,0.406,1.561,0.908l1.07,1.896c0.26,0.459,0.064,0.825-0.415,0.885c-0.01-0.037-0.016-0.074-0.038-0.115
				l-1.07-1.897c-0.019-0.033-0.052-0.061-0.074-0.093l0.645,1.142H16.918c-0.264,0-0.678-0.24-0.806-0.468l-0.841-1.489h-0.825
				c-0.057,0-0.099,0.016-0.144,0.027C14.118,51.75,14.343,51.398,14.875,51.398z M48.559,64.205
				c-0.01-0.038-0.016-0.074-0.038-0.115l-1.07-1.897c-0.019-0.032-0.052-0.061-0.073-0.092l0.66,1.172h-26.22
				c-0.264,0-0.679-0.242-0.808-0.47l-0.854-1.512l25.752-0.003c-0.006,0-0.013-0.003-0.019-0.003H19.328
				c-0.057,0-0.099,0.016-0.144,0.027c-0.185-0.445,0.041-0.797,0.573-0.797h26.585c0.578,0,1.279,0.408,1.561,0.908l1.07,1.896
				C49.234,63.779,49.039,64.145,48.559,64.205z"/>
		</g>
		<g>
			<path fill="none" d="M38.212,45.599c-0.02-0.062-0.024-0.121-0.062-0.188l-1.07-1.897c-0.024-0.043-0.067-0.08-0.098-0.122
				l-0.212-0.377c-0.128-0.227-0.544-0.468-0.808-0.468l-26.25,0.002l0.033,0.058H8.919c-0.078,0-0.132,0.024-0.197,0.038
				c-0.419,0.09-0.583,0.438-0.339,0.869l1.071,1.897c0.282,0.501,0.983,0.907,1.56,0.907h26.6
				C38.115,46.318,38.339,46.006,38.212,45.599z"/>
			<path fill="none" d="M43.718,55.165c-0.02-0.063-0.025-0.124-0.063-0.192l-1.07-1.897c-0.019-0.033-0.052-0.061-0.074-0.093
				l-0.212-0.376c-0.126-0.228-0.542-0.466-0.806-0.466l-26.235,0.002l0.014,0.024h-0.825c-0.078,0-0.132,0.024-0.197,0.038
				c-0.419,0.091-0.583,0.438-0.339,0.87l1.071,1.897c0.282,0.5,0.983,0.907,1.561,0.907h26.578
				C43.617,55.88,43.842,55.57,43.718,55.165z"/>
			<path fill="none" d="M48.521,64.09l-1.07-1.897c-0.019-0.032-0.052-0.061-0.073-0.092l-0.194-0.345
				c-0.129-0.227-0.543-0.468-0.808-0.468h-0.468c-0.006,0-0.013-0.003-0.019-0.003H19.328c-0.078,0-0.132,0.024-0.197,0.038
				c-0.419,0.09-0.583,0.438-0.339,0.869l1.07,1.897c0.282,0.5,0.984,0.908,1.561,0.908h26.561c0.5,0,0.725-0.312,0.601-0.716
				C48.565,64.218,48.559,64.158,48.521,64.09z"/>
			<path fill="#EEF4DE" d="M57.544,69.922l-6.437-11.141L38.738,37.373H0.913H0.34h-0.444L19.117,70.82h0.093l38.698,0.023h0.168
				L57.544,69.922z M9.453,45.411l-1.071-1.897c-0.244-0.432-0.08-0.779,0.339-0.869c0.065-0.014,0.12-0.038,0.197-0.038h0.825
				l-0.033-0.058l26.25-0.002c0.264,0,0.68,0.241,0.808,0.468l0.212,0.377c0.03,0.042,0.073,0.079,0.098,0.122l1.07,1.897
				c0.038,0.066,0.042,0.125,0.062,0.188c0.127,0.407-0.096,0.72-0.599,0.72h-26.6C10.436,46.318,9.735,45.912,9.453,45.411z
				 M14.98,54.973l-1.071-1.897c-0.244-0.433-0.08-0.779,0.339-0.87c0.065-0.014,0.12-0.038,0.197-0.038h0.825l-0.014-0.024
				l26.235-0.002c0.264,0,0.68,0.238,0.806,0.466l0.212,0.376c0.022,0.032,0.056,0.06,0.074,0.093l1.07,1.897
				c0.038,0.068,0.044,0.129,0.063,0.192c0.124,0.405-0.101,0.715-0.6,0.715H16.54C15.963,55.88,15.261,55.473,14.98,54.973z
				 M47.984,64.998H21.423c-0.577,0-1.279-0.408-1.561-0.908l-1.07-1.897c-0.244-0.432-0.08-0.779,0.339-0.869
				c0.065-0.014,0.12-0.038,0.197-0.038h26.561c0.006,0,0.013,0.003,0.019,0.003h0.468c0.265,0,0.679,0.241,0.808,0.468l0.194,0.345
				c0.021,0.031,0.055,0.06,0.073,0.092l1.07,1.897c0.038,0.068,0.044,0.128,0.063,0.192C48.709,64.687,48.484,64.998,47.984,64.998
				z"/>
		</g>
		<path fill="#FFFFFF" d="M21.01,62.803c0.128,0.228,0.543,0.47,0.808,0.47h26.22l-0.66-1.172c-0.31-0.45-0.933-0.805-1.47-0.812
			l-25.752,0.003L21.01,62.803z"/>
		<path fill="#FFFFFF" d="M47.378,62.101l-0.194-0.345c-0.129-0.227-0.543-0.468-0.808-0.468h-0.468
			C46.445,61.296,47.068,61.65,47.378,62.101z"/>
		<path fill="#FFFFFF" d="M35.519,42.606H9.744l0.822,1.456c0.127,0.226,0.542,0.466,0.806,0.466h26.25l-0.641-1.137
			C36.661,42.952,36.047,42.606,35.519,42.606z"/>
		<path fill="#FFFFFF" d="M35.961,42.547l-26.25,0.002l0.033,0.058h25.775c0.528,0,1.143,0.346,1.463,0.785l-0.212-0.377
			C36.641,42.788,36.225,42.547,35.961,42.547z"/>
		<path fill="#FFFFFF" d="M41.023,52.167H15.27l0.841,1.489c0.128,0.228,0.542,0.468,0.806,0.468h26.236l-0.645-1.142
			C42.197,52.527,41.565,52.167,41.023,52.167z"/>
		<path fill="#FFFFFF" d="M41.492,52.141l-26.235,0.002l0.014,0.024h25.753c0.542,0,1.174,0.36,1.486,0.815l-0.212-0.376
			C42.172,52.379,41.756,52.141,41.492,52.141z"/>
	</g>
</g>
</svg>
