<?xml version="1.0" encoding="utf-8"?>
<!-- Generator: Adobe Illustrator 16.0.0, SVG Export Plug-In . SVG Version: 6.00 Build 0)  -->
<!DOCTYPE svg PUBLIC "-//W3C//DTD SVG 1.1//EN" "http://www.w3.org/Graphics/SVG/1.1/DTD/svg11.dtd">
<svg version="1.1" id="Layer_1" xmlns="http://www.w3.org/2000/svg" xmlns:xlink="http://www.w3.org/1999/xlink" x="0px" y="0px"
	 width="80.808px" height="70.844px" viewBox="0 0 80.808 70.844" enable-background="new 0 0 80.808 70.844" xml:space="preserve">
<path fill="#F7F9EC" d="M38.123,0.009L22.312,0.001L19.428,0l-0.021,0.029l-1.5,2.589l-6.479,11.193l-4.312,7.45L0.664,32.409
	L0,33.554h36.529h2.088l1.137-1.95L58.148,0.019h0.002l-2.145-0.001L40.178,0.01L38.123,0.009z M45.708,9.93l-9.812,0.005
	l-10.02,17.574h-5.906L30.154,9.93L20.01,9.935l2.357-4.146h25.656L45.708,9.93z"/>
<polygon fill="#F7F9EC" points="8.916,53.067 8.885,53.08 9.066,53.396 19.117,70.821 58.076,70.844 39.758,39.144 38.738,37.373 
	36.402,37.373 -0.104,37.373 8.938,53.06 "/>
<polygon fill="#F7F9EC" points="41.935,35.38 43.087,37.373 61.333,68.946 61.947,67.887 80.796,35.264 80.808,35.244 
	77.285,29.133 70.744,17.785 70.564,17.474 70.591,17.456 70.615,17.441 63.126,4.494 61.535,1.739 61.531,1.744 43,33.555 "/>
</svg>
